<svg id="Layer_1" enable-background="new 0 0 512 512" height="512" viewBox="0 0 512 512" width="512" xmlns="http://www.w3.org/2000/svg"><g><path d="m274.984 467.819 119.393-134.23c2.126-2.39 3.3-5.477 3.3-8.675v-266.6c0-11.496-9.319-20.815-20.815-20.815h-241.724c-11.496 0-20.815 9.319-20.815 20.815v266.6c0 3.198 1.174 6.285 3.3 8.675l119.393 134.23c1.421 1.597 3.457 2.511 5.594 2.511h26.78c2.137 0 4.173-.914 5.594-2.511z" fill="#d2d5d4"/><path d="m376.862 37.5h-30c11.496 0 20.815 9.319 20.815 20.815v266.6c0 3.198-1.174 6.285-3.3 8.675l-119.393 134.229c-1.057 1.189-2.456 1.998-3.984 2.334.525.115 1.064.177 1.61.177h26.78c2.138 0 4.173-.914 5.594-2.511l119.393-134.229c2.125-2.39 3.3-5.477 3.3-8.675v-266.6c-.001-11.496-9.32-20.815-20.815-20.815z" fill="#c7c9c8"/><path d="m411 259.5h-310c-8.284 0-15-6.716-15-15 0-8.284 6.716-15 15-15h310c8.284 0 15 6.716 15 15 0 8.284-6.716 15-15 15z" fill="#497285"/><path d="m411 229.5h-30c8.284 0 15 6.716 15 15s-6.716 15-15 15h30c8.284 0 15-6.716 15-15s-6.716-15-15-15z" fill="#426778"/><g fill="#426778"><path d="m106 259.5h30v245h-30z"/><path d="m376 259.5h30v245h-30z"/></g><path d="m146 7.5h220v30h-220z" fill="#c7c9c8"/><path d="m336 7.5h30v30h-30z" fill="#b8bab9"/><circle cx="256" cy="244.5" fill="#c7c9c8" r="70"/><circle cx="256" cy="244.5" fill="#8aeeff" r="40"/><g><path d="m433.5 244.5c0-12.406-10.094-22.5-22.5-22.5h-5.82v-93.923c0-4.143-3.357-7.5-7.5-7.5s-7.5 3.357-7.5 7.5v93.923h-60.022c-9.665-31.793-39.248-55-74.158-55s-64.493 23.207-74.158 55h-60.022v-163.69c0-7.339 5.975-13.31 13.319-13.31h241.721c7.345 0 13.319 5.971 13.319 13.31v36.536c0 4.143 3.357 7.5 7.5 7.5s7.5-3.357 7.5-7.5v-36.536c0-15.61-12.704-28.31-28.319-28.31h-3.36v-22.5c0-4.143-3.357-7.5-7.5-7.5h-220c-4.143 0-7.5 3.357-7.5 7.5v22.5h-3.36c-15.615 0-28.319 12.699-28.319 28.31v163.69h-5.821c-6.018 0-11.669 2.347-15.893 6.587-4.261 4.244-6.607 9.896-6.607 15.913 0 11.561 8.766 21.11 20 22.358v21.117c0 4.143 3.357 7.5 7.5 7.5s7.5-3.357 7.5-7.5v-20.975h15v230h-15v-177.23c0-4.143-3.357-7.5-7.5-7.5s-7.5 3.357-7.5 7.5v184.73c0 4.143 3.357 7.5 7.5 7.5h30c4.143 0 7.5-3.357 7.5-7.5v-130.534l87.912 98.835c2.839 3.196 6.921 5.029 11.198 5.029h26.779c4.277 0 8.359-1.833 11.194-5.025l26.774-30.102c2.753-3.095 2.476-7.835-.619-10.588-3.095-2.755-7.837-2.476-10.588.619l-26.76 30.096-26.767.006-99.123-111.439v-84.397h38.342c9.665 31.793 39.248 55 74.158 55s64.493-23.207 74.158-55h38.342v84.397l-51.093 57.44c-2.753 3.095-2.476 7.835.619 10.588 1.429 1.271 3.209 1.896 4.981 1.896 2.067 0 4.125-.85 5.606-2.516l39.886-44.841v130.536c0 4.143 3.357 7.5 7.5 7.5h30c4.143 0 7.5-3.357 7.5-7.5v-237.648c5.069-.557 9.76-2.792 13.393-6.439 4.261-4.244 6.608-9.895 6.608-15.913zm-280-229.5h205v15h-205zm-52.5 237c-4.136 0-7.5-3.364-7.5-7.5 0-2 .779-3.877 2.214-5.307 1.409-1.414 3.286-2.193 5.286-2.193h77.869c-.238 2.469-.369 4.969-.369 7.5s.131 5.031.369 7.5zm155 55c-34.463 0-62.5-28.037-62.5-62.5s28.037-62.5 62.5-62.5 62.5 28.037 62.5 62.5-28.037 62.5-62.5 62.5zm142.5 190h-15v-230h15zm17.786-247.193c-1.409 1.414-3.286 2.193-5.286 2.193h-77.869c.238-2.469.369-4.969.369-7.5s-.131-5.031-.369-7.5h77.869c4.136 0 7.5 3.364 7.5 7.5 0 2-.779 3.877-2.214 5.307z"/><path d="m256 197c-26.191 0-47.5 21.309-47.5 47.5s21.309 47.5 47.5 47.5 47.5-21.309 47.5-47.5-21.309-47.5-47.5-47.5zm0 80c-17.921 0-32.5-14.579-32.5-32.5s14.579-32.5 32.5-32.5 32.5 14.579 32.5 32.5-14.579 32.5-32.5 32.5z"/><path d="m256 223.654c-4.143 0-7.5 3.357-7.5 7.5v13.346c0 4.143 3.357 7.5 7.5 7.5s7.5-3.357 7.5-7.5v-13.346c0-4.142-3.357-7.5-7.5-7.5z"/></g></g></svg>