<?xml version="1.0" encoding="UTF-8"?>
<svg xmlns="http://www.w3.org/2000/svg" xmlns:xlink="http://www.w3.org/1999/xlink" width="512" height="512" viewBox="0 0 34 60" version="1.1"><!-- Generator: Sketch 51.3 (57544) - http://www.bohemiancoding.com/sketch --><title>005 - Fermenting Tank</title><desc>Created with Sketch.</desc><defs/><g id="Page-1" stroke="none" stroke-width="1" fill="none" fill-rule="evenodd"><g id="005---Fermenting-Tank" transform="translate(1.000000, 1.000000)"><path d="M27,9 L27,12 L5,12 L5,9 C5,6.790861 6.790861,5 9,5 L13,5 C13.5522847,5 14,4.55228475 14,4 C14,3.44771525 14.4477153,3 15,3 L17,3 C17.5522847,3 18,3.44771525 18,4 C18,4.55228475 18.4477153,5 19,5 L23,5 C25.209139,5 27,6.790861 27,9 Z" id="Shape" fill="#0377BC" fill-rule="nonzero"/><path d="M25,9 L25,12 L5,12 L5,9 C5,6.790861 6.790861,5 9,5 L13,5 C13.5522847,5 14,4.55228475 14,4 C14,3.44771525 14.4477153,3 15,3 C15.5522847,3 16,3.44771525 16,4 C16,4.55228475 16.4477153,5 17,5 L21,5 C23.209139,5 25,6.790861 25,9 Z" id="Shape" fill="#02A9F4" fill-rule="nonzero"/><path d="M28,11 L28,38 L16,43 L14.5,42.38 L4,38 L4,11 C4,10.4477153 4.44771525,10 5,10 L27,10 C27.5522847,10 28,10.4477153 28,11 Z" id="Shape" fill="#283593" fill-rule="nonzero"/><path d="M25,11 L25,38 L14.5,42.38 L4,38 L4,11 C4,10.4477153 4.44771525,10 5,10 L24,10 C24.5522847,10 25,10.4477153 25,11 Z" id="Shape" fill="#3F51B5" fill-rule="nonzero"/><circle id="Oval" fill="#9FC9D3" fill-rule="nonzero" cx="16" cy="29" r="4"/><path d="M27,39.75 L27,57 C27,57.5522847 26.5522847,58 26,58 L24,58 C23.4477153,58 23,57.5522847 23,57 L23,46.75 L9,46.75 L9,57 C9,57.5522847 8.55228475,58 8,58 L6,58 C5.44771525,58 5,57.5522847 5,57 L5,39.75 L27,39.75 Z" id="Shape" fill="#37474F" fill-rule="nonzero"/><path d="M28,38 L20,52 C19,54 18.21,54 16,54 C15.41,54 14.92,54 14.5,53.96 C13.35,53.86 12.73,53.47 12,52 L4,38 L28,38 Z" id="Shape" fill="#37474F" fill-rule="nonzero"/><path d="M25,38 L17,52 C16.27,53.47 15.65,53.86 14.5,53.96 C13.35,53.86 12.73,53.47 12,52 L4,38 L25,38 Z" id="Shape" fill="#607D8B" fill-rule="nonzero"/><polygon id="Shape" fill="#545C60" fill-rule="nonzero" points="21 38 16 54 15 50.8 11 38"/><polygon id="Shape" fill="#7F8E94" fill-rule="nonzero" points="19 38 15 50.8 11 38"/><path d="M5,10 L27,10 C27.5522847,10 28,10.4477153 28,11 L28,38 L4,38 L4,11 C4,10.4477153 4.44771525,10 5,10 Z" id="Shape" stroke="#000000" stroke-width="2" stroke-linecap="round" stroke-linejoin="round"/><path d="M9,38 L5,38" id="Shape" stroke="#000000" stroke-width="2" stroke-linecap="round" stroke-linejoin="round"/><path d="M9,46.75 L9,57 C9,57.5522847 8.55228475,58 8,58 L6,58 C5.44771525,58 5,57.5522847 5,57 L5,39.75" id="Shape" stroke="#000000" stroke-width="2" stroke-linecap="round" stroke-linejoin="round"/><path d="M27,38 L23,38" id="Shape" stroke="#000000" stroke-width="2" stroke-linecap="round" stroke-linejoin="round"/><path d="M27,39.75 L27,57 C27,57.5522847 26.5522847,58 26,58 L24,58 C23.4477153,58 23,57.5522847 23,57 L23,46.75" id="Shape" stroke="#000000" stroke-width="2" stroke-linecap="round" stroke-linejoin="round"/><path d="M16,56 L16,54" id="Shape" stroke="#000000" stroke-width="2" stroke-linecap="round" stroke-linejoin="round"/><path d="M4,35 L2,35 C0.8954305,35 0,34.1045695 0,33 L0,9 C-1.77635684e-15,4.02943725 4.02943725,8.8817842e-16 9,0 L16,0 L16,3" id="Shape" stroke="#000000" stroke-width="2" stroke-linecap="round" stroke-linejoin="round"/><path d="M28,35 L30,35 C31.1045695,35 32,34.1045695 32,33 L32,9 C32,4.02943725 27.9705627,2.22044605e-16 23,0 L16,0 L16,3" id="Shape" stroke="#000000" stroke-width="2" stroke-linecap="round" stroke-linejoin="round"/><path d="M5,10 L5,9 C5,6.790861 6.790861,5 9,5 L13,5 C13.5522847,5 14,4.55228475 14,4 C14,3.44771525 14.4477153,3 15,3 L17,3 C17.5522847,3 18,3.44771525 18,4 C18,4.55228475 18.4477153,5 19,5 L23,5 C25.209139,5 27,6.790861 27,9 L27,10" id="Shape" stroke="#000000" stroke-width="2" stroke-linecap="round" stroke-linejoin="round"/><circle id="Oval" stroke="#000000" stroke-width="2" stroke-linecap="round" stroke-linejoin="round" cx="16" cy="29" r="4"/><path d="M12.54,27 L10,27" id="Shape" stroke="#000000" stroke-width="2" stroke-linecap="round" stroke-linejoin="round"/><path d="M12.54,31 L10,31" id="Shape" stroke="#000000" stroke-width="2" stroke-linecap="round" stroke-linejoin="round"/><path d="M8,14 L9,14" id="Shape" stroke="#000000" stroke-width="2" stroke-linecap="round" stroke-linejoin="round"/><path d="M13,14 L18,14" id="Shape" stroke="#000000" stroke-width="2" stroke-linecap="round" stroke-linejoin="round"/><path d="M20,52 L28,38 L4,38 L12,52 C13,54 13.79,54 16,54 C18.21,54 19,54 20,52 Z" id="Shape" stroke="#000000" stroke-width="2" stroke-linecap="round" stroke-linejoin="round"/><polyline id="Shape" stroke="#000000" stroke-width="2" stroke-linecap="round" stroke-linejoin="round" points="11 38 16 54 21 38"/></g></g></svg>
