<svg id="Capa_1" enable-background="new 0 0 512.002 512.002" height="512" viewBox="0 0 512.002 512.002" width="512" xmlns="http://www.w3.org/2000/svg"><g><path d="m115.723 52.5 2.812 30 19.688 15 19.687-15 2.813-30z" fill="#fff0d3"/><path d="m123.223 132.5h30l4.687-50h-39.375z" fill="#ff6337"/><path d="m303.223 247.5h-59.999l29.999 105h30z" fill="#696969"/><path d="m228.223 187.5-15 75v90h60v-90c8.284 0 15-6.716 15-15l20-60z" fill="#808080"/><path d="m218.223 172.5c-11.045 0-20 8.954-20 20v45c0 10.685 6.036 20.007 15 25 8.284 0 15-6.716 15-15v-15h80l-20-60z" fill="#fff"/><path d="m318.223 237.5v-45c0-11.046-8.954-20-20-20h-10v75c0 8.284 6.716 15 15 15 8.964-4.993 15-14.315 15-25z" fill="#ebebeb"/><path d="m258.223 7.5-45 90h90v-45c0-24.853-20.147-45-45-45z" fill="#30b054"/><path d="m213.223 52.5v45h45v-90c-24.852 0-45 20.147-45 45z" fill="#80bf63"/><path d="m258.223 52.5v101l45-46v-10c0-24.853-20.147-45-45-45z" fill="#ffb4a9"/><path d="m258.223 52.5c-24.853 0-45 20.147-45 45v10l60 46v-56c0-24.853-6.716-45-15-45z" fill="#ffd9d4"/><path d="m258.223 107.5v95c9.81 0 18.149-6.28 21.228-15.038.421.023.845.038 1.272.038 12.426 0 22.5-10.074 22.5-22.5v-57.5z" fill="#a45e43"/><path d="m258.223 97.483c-6.759 0-12.551 4.128-15 10l-30 .016v57.501c0 12.426 10.074 22.5 22.5 22.5.427 0 .851-.015 1.272-.038 3.079 8.758 11.417 15.038 21.228 15.038 8.284 0 15-10.074 15-22.5v-72.516c-2.449-5.872-8.241-10.001-15-10.001z" fill="#c27749"/><path d="m408.223 382.5c0-16.568-13.431-30-30-30l-15 56 15 56h30z" fill="#ffa754"/><g fill="#ffcb63"><path d="m378.223 352.5c-16.568 0-30 13.432-30 30v82h30z"/><path d="m138.223 0c-4.142 0-7.5 3.357-7.5 7.5v15c0 4.143 3.358 7.5 7.5 7.5s7.5-3.357 7.5-7.5v-15c0-4.143-3.358-7.5-7.5-7.5z"/><path d="m110.71 11.48c-1.584-3.827-5.973-5.643-9.799-4.059-3.827 1.585-5.644 5.972-4.059 9.799l5.74 13.859c1.584 3.827 5.973 5.643 9.799 4.059 3.827-1.585 5.644-5.972 4.059-9.799z"/><path d="m175.534 7.422c-3.826-1.584-8.215.231-9.799 4.059l-5.74 13.859c-1.585 3.827.232 8.214 4.059 9.799 3.826 1.584 8.215-.231 9.799-4.059l5.74-13.859c1.585-3.827-.232-8.214-4.059-9.799z"/></g><path d="m115.755 133.2c.361 3.854 3.596 6.8 7.467 6.8h30c3.871 0 7.106-2.946 7.467-6.8l7.5-80c.197-2.102-.501-4.189-1.922-5.75s-3.435-2.45-5.545-2.45h-45c-2.111 0-4.124.89-5.545 2.45-1.421 1.561-2.119 3.648-1.922 5.75zm36.732-73.2-6.094 65h-16.341l-6.094-65z"/><circle cx="378.223" cy="434.5" r="7.5"/><circle cx="378.223" cy="404.5" r="7.5"/><path d="m385.723 345.755v-115.755h7.5c12.406 0 22.5-10.093 22.5-22.5s-10.094-22.5-22.5-22.5h-7.5v-80h7.5c4.143 0 7.5-3.358 7.5-7.5s-3.357-7.5-7.5-7.5h-30c-4.143 0-7.5 3.358-7.5 7.5s3.357 7.5 7.5 7.5h7.5v80h-46.049c-2.097-7.404-7.228-13.596-14.098-17.045.096-.972.147-1.958.147-2.955l.001-112.5c0-28.949-23.552-52.5-52.5-52.5-28.949 0-52.5 23.551-52.5 52.5v44.989 67.511c0 .997.051 1.982.147 2.955-6.87 3.449-12.001 9.641-14.098 17.046h-68.549c-4.136 0-7.5-3.364-7.5-7.5s3.364-7.5 7.5-7.5h15c4.142 0 7.5-3.358 7.5-7.5s-3.358-7.5-7.5-7.5h-15c-12.407 0-22.5 10.093-22.5 22.5s10.093 22.5 22.5 22.5h67.5v37.5c0 11.485 5.65 22.27 15 29.089v85.91c0 4.142 3.358 7.5 7.5 7.5h7.5v129.094l-24.872 8.291c-3.93 1.31-6.053 5.557-4.744 9.487 1.048 3.143 3.974 5.13 7.114 5.13.786 0 1.586-.125 2.373-.387l30-10c3.063-1.021 5.128-3.887 5.128-7.115v-134.5h45v134.5c0 3.228 2.065 6.094 5.128 7.115l30 10c.787.262 1.587.387 2.373.387 3.141 0 6.066-1.988 7.114-5.13 1.31-3.93-.814-8.177-4.743-9.487l-24.872-8.291v-129.094h7.5c4.143 0 7.5-3.358 7.5-7.5v-85.911c9.35-6.82 15-17.604 15-29.089v-37.5h45v145.755c-17.096 3.484-30 18.635-30 36.745v82c0 4.142 3.357 7.5 7.5 7.5h60c4.143 0 7.5-3.358 7.5-7.5v-82c0-18.11-12.904-33.261-30-36.745zm0-145.755h7.5c4.136 0 7.5 3.364 7.5 7.5s-3.364 7.5-7.5 7.5h-7.5zm-165-147.5c0-20.678 16.823-37.5 37.5-37.5s37.5 16.822 37.5 37.5v8.309c-9.536-9.746-22.821-15.809-37.5-15.809s-27.963 6.063-37.5 15.807zm0 44.989c.006-20.673 16.826-37.489 37.5-37.489 20.678 0 37.5 16.822 37.5 37.5.001 0 .001 2.483.001 2.483h-18.13c-4.389-6.2-11.545-10-19.37-10s-14.982 3.8-19.371 10h-18.129v-2.494zm0 17.494h22.499c3.027 0 5.757-1.819 6.922-4.613 1.365-3.272 4.536-5.387 8.079-5.387 3.542 0 6.713 2.115 8.078 5.387 1.165 2.793 3.896 4.613 6.922 4.613h22.5v50.017c0 8.271-6.729 15-15 15-.287 0-.572-.011-.855-.026-3.33-.182-6.386 1.853-7.492 5-2.108 5.997-7.796 10.026-14.152 10.026-6.357 0-12.044-4.029-14.152-10.025-1.06-3.016-3.907-5.013-7.073-5.013-.139 0-.279.004-.419.012-.284.016-.568.026-.856.026-8.271 0-15-6.729-15-15zm60 84.842v25.175h-45v-25.175c5.586 6.327 13.721 10.175 22.5 10.175s16.914-3.847 22.5-10.175zm-65.712 54.95c-5.774-4-9.289-10.436-9.289-17.275v-45c0-4.235 2.125-8.034 5.44-10.301 2.508 3.571 5.771 6.574 9.56 8.771v56.53c.001 3.518-2.437 6.47-5.711 7.275zm80.712 90.225h-75v-76.29c8.729-3.096 15-11.432 15-21.21v-7.5h45v7.5c0 9.777 6.271 18.114 15 21.21zm15-107.5c0 6.839-3.515 13.275-9.289 17.275-3.273-.805-5.711-3.757-5.711-7.275v-56.531c3.789-2.197 7.051-5.199 9.56-8.77 3.315 2.267 5.44 6.066 5.44 10.301zm90 219.5h-45v-74.5c0-12.407 10.094-22.5 22.5-22.5s22.5 10.093 22.5 22.5z"/></g></svg>