<svg id="Layer_3" enable-background="new 0 0 64 64" height="512" viewBox="0 0 64 64" width="512" xmlns="http://www.w3.org/2000/svg"><g><g><path d="m32 8-24 15.111v38.889h48v-38.889z" fill="#ebf7fe"/></g><path d="m44 50h-24v-18c0-6.627 5.373-12 12-12 6.627 0 12 5.373 12 12z" fill="#88929f"/><path d="m42.397 26.026c-2.072-3.598-5.947-6.026-10.397-6.026-6.627 0-12 5.373-12 12v14.641c11.167-1.772 20.065-10.022 22.397-20.615z" fill="#a0a8b2"/><path d="m24 34h16v12h-16z" fill="#78b761"/><path d="m24 45.701c6.405-2.004 11.766-6.218 15.145-11.701h-15.145z" fill="#93c581"/><g fill="#c1c8d1"><path d="m20 50h4v12h-4z"/><path d="m40 50h4v12h-4z"/><path d="m28 50h8v4h-8z"/></g><path d="m30 54h4v4h-4z" fill="#88929f"/><path d="m26 26h12v4h-12z" fill="#c1c8d1"/><path d="m59 25-27-17-27 17-3-4 30-19 30 19z" fill="#c18e5c"/><circle cx="50" cy="28" fill="#c7e2fb" r="2"/><circle cx="14" cy="38" fill="#c7e2fb" r="2"/><g><path d="m23 34v12c0 .553.448 1 1 1h16c.552 0 1-.447 1-1v-12c0-.553-.448-1-1-1h-16c-.552 0-1 .447-1 1zm2 11v-2.586l2-2c.533-.535 1.465-.535 2 0l.585.586c1.289 1.289 3.541 1.289 4.829 0l.586-.586c.533-.535 1.465-.535 2 0l2 2v2.586zm14-10v4.586l-.585-.586c-1.289-1.289-3.541-1.289-4.829 0l-.586.586c-.533.535-1.465.535-2 0l-.585-.586c-1.289-1.289-3.541-1.289-4.829 0l-.586.586v-4.586z"/><path d="m26 31h12c.552 0 1-.447 1-1v-4c0-.553-.448-1-1-1h-12c-.552 0-1 .447-1 1v4c0 .553.448 1 1 1zm1-4h10v2h-10z"/><path d="m62.535 20.155-30-19c-.327-.207-.743-.207-1.07 0l-30 19c-.235.149-.398.39-.448.664s.016.558.183.781l3 4c.313.418.893.523 1.333.247l1.467-.924v37.077c0 .553.448 1 1 1h48c.552 0 1-.447 1-1v-37.077l1.467.924c.165.103.349.153.533.153.305 0 .605-.14.8-.4l3-4c.167-.223.234-.506.184-.78s-.213-.515-.449-.665zm-41.535 30.845h2v10h-2zm6 0v3c0 .553.448 1 1 1h1v3c0 .553.448 1 1 1h4c.552 0 1-.447 1-1v-3h1c.552 0 1-.447 1-1v-3h2v10h-14v-10zm4 4h2v2h-2zm-2-2v-2h6v2zm12-2h2v10h-2zm2-2h-22v-17c0-6.065 4.935-11 11-11s11 4.935 11 11zm12 12h-10v-11-18c0-7.168-5.832-13-13-13s-13 5.832-13 13v18 11h-10v-37.336l23-14.482 23 14.482zm3.753-37.337-26.22-16.51c-.163-.102-.348-.153-.533-.153s-.37.051-.533.153l-26.22 16.51-1.798-2.397 28.551-18.082 28.551 18.082z"/><path d="m50 31c1.654 0 3-1.346 3-3s-1.346-3-3-3-3 1.346-3 3 1.346 3 3 3zm0-4c.551 0 1 .448 1 1s-.449 1-1 1-1-.448-1-1 .449-1 1-1z"/><path d="m14 35c-1.654 0-3 1.346-3 3s1.346 3 3 3 3-1.346 3-3-1.346-3-3-3zm0 4c-.551 0-1-.448-1-1s.449-1 1-1 1 .448 1 1-.449 1-1 1z"/></g></g></svg>