<svg height="512pt" viewBox="0 0 512 512.02791" width="512pt" xmlns="http://www.w3.org/2000/svg"><path d="m477.867188 114.714844v371.714844c-.027344 9.414062-7.652344 17.035156-17.066407 17.066406h-409.597656c-9.414063-.03125-17.039063-7.652344-17.070313-17.066406v-371.714844l218.625-89.085938c2.078126-.855468 4.410157-.855468 6.484376 0zm0 0" fill="#fab864"/><path d="m502.1875 125.894531c-2.578125 6.457031-8.835938 10.683594-15.785156 10.667969-2.222656-.011719-4.425782-.449219-6.484375-1.28125l-2.050781-.851562-218.625-89.089844c-2.074219-.851563-4.40625-.851563-6.484376 0l-218.625 89.089844-2.046874.851562c-5.699219 2.621094-12.378907 1.898438-17.390626-1.875-5.011718-3.769531-7.546874-9.988281-6.609374-16.191406.941406-6.203125 5.210937-11.390625 11.117187-13.507813l230.398437-93.867187c4.097657-1.707032 8.703126-1.707032 12.800782 0l230.398437 93.867187c4.207031 1.675781 7.566407 4.964844 9.328125 9.132813 1.765625 4.167968 1.785156 8.871094.058594 13.054687zm0 0" fill="#fa7a62"/><path d="m307.203125 324.292969v34.136719c0 10.019531 2.96875 19.820312 8.53125 28.160156 5.5625 8.335937 8.53125 18.136718 8.535156 28.15625v69.976562c-.03125 9.414063-7.652343 17.039063-17.066406 17.066406h-34.136719c-9.414062-.027343-17.035156-7.652343-17.066406-17.066406v-69.976562c.003906-10.019532 2.972656-19.820313 8.535156-28.15625 5.5625-8.339844 8.53125-18.140625 8.53125-28.160156v-34.136719zm0 0" fill="#a3d274"/><path d="m273.066406 298.695312h34.136719c4.710937 0 8.53125 3.820313 8.53125 8.53125v17.066407c0 4.714843-3.820313 8.535156-8.53125 8.535156h-34.136719c-4.710937 0-8.53125-3.820313-8.53125-8.535156v-17.066407c0-4.710937 3.820313-8.53125 8.53125-8.53125zm0 0" fill="#8fc05e"/><path d="m102.402344 298.695312h102.398437c4.714844 0 8.535157 3.820313 8.535157 8.53125v153.601563c0 4.710937-3.820313 8.53125-8.535157 8.53125h-102.398437c-4.714844 0-8.535156-3.820313-8.535156-8.53125v-153.601563c0-4.710937 3.820312-8.53125 8.535156-8.53125zm0 0" fill="#cbd1d7"/><path d="m179.203125 401.101562c0 14.140626-11.464844 25.601563-25.601563 25.601563-14.136718 0-25.601562-11.460937-25.601562-25.601563 0-14.136718 11.464844-25.597656 25.601562-25.597656 14.136719 0 25.601563 11.460938 25.601563 25.597656zm0 0" fill="#fff"/><path d="m256 416.453125h68.269531v42.667969h-68.269531zm0 0" fill="#e5e8eb"/><path d="m477.867188 256.027344v230.402344c-.027344 9.414062-7.652344 17.035156-17.066407 17.066406h-68.265625v-238.933594c0-4.714844 3.820313-8.535156 8.53125-8.535156zm0 0" fill="#937966"/><path d="m477.867188 290.160156v51.199219h-42.664063c-4.714844 0-8.535156-3.820313-8.535156-8.53125v-34.132813c0-4.714843 3.820312-8.535156 8.535156-8.535156zm0 0" fill="#5ec4e8"/><path d="m315.734375 153.628906c0 32.988282-26.742187 59.730469-59.734375 59.730469-32.988281 0-59.730469-26.742187-59.730469-59.730469 0-32.992187 26.742188-59.734375 59.730469-59.734375 32.992188 0 59.734375 26.742188 59.734375 59.734375zm0 0" fill="#5ec4e8"/><g fill="#373737"><path d="m1.90625 129.164062c3.925781 9.628907 13.292969 15.925782 23.695312 15.929688v34.132812c0 4.714844 3.820313 8.535157 8.53125 8.535157 4.714844 0 8.535157-3.820313 8.535157-8.535157v-39.039062l213.332031-86.929688 213.335938 86.929688v107.308594h-68.269532c-9.425781 0-17.066406 7.640625-17.066406 17.066406v230.398438h-53.359375c1.425781-3.226563 2.160156-6.714844 2.160156-10.238282v-69.976562c.011719-11.707032-3.453125-23.15625-9.957031-32.894532l-.144531-.203124c-4.546875-6.890626-6.96875-14.964844-6.964844-23.21875v-19.441407c5.261719-3.023437 8.515625-8.625 8.535156-14.695312v-17.066407c0-9.425781-7.640625-17.066406-17.066406-17.066406h-8.535156v-17.066406c0-14.136719-11.460938-25.597656-25.601563-25.597656h-102.398437c-14.136719 0-25.601563 11.460937-25.601563 25.597656v17.066406h-42.664062c-9.425782 0-17.066406 7.640625-17.066406 17.066406v153.601563c0 9.425781 7.640624 17.066406 17.066406 17.066406v17.066407h-51.199219c-4.714844 0-8.535156-3.820313-8.535156-8.53125v-256c0-4.714844-3.820313-8.535157-8.535157-8.535157-4.710937 0-8.53125 3.820313-8.53125 8.535157v256c0 14.136718 11.460938 25.597656 25.601563 25.597656h409.597656c14.140625 0 25.601563-11.460938 25.601563-25.597656v-34.136719c0-4.710938-3.820313-8.53125-8.535156-8.53125-4.710938 0-8.53125 3.820312-8.53125 8.53125v34.136719c0 4.710937-3.820313 8.53125-8.535157 8.53125h-59.734375v-230.398438h68.269532v17.066406h-34.132813c-9.425781 0-17.070313 7.640625-17.070313 17.066406v34.132813c0 9.425781 7.644532 17.066406 17.070313 17.066406h34.132813v59.734375c0 4.710938 3.820312 8.53125 8.53125 8.53125 4.714843 0 8.535156-3.820312 8.535156-8.53125v-264.535156c12.246094.007812 22.785156-8.660156 25.136718-20.679688 2.355469-12.015624-4.132812-24.019531-15.476562-28.632812l-230.402344-93.867188c-6.1875-2.550781-13.132812-2.550781-19.320312 0l-230.398438 93.867188c-13.074218 5.359375-19.351562 20.289062-14.035156 33.382812zm269.738281 262.160157c6.503907-9.734375 9.972657-21.1875 9.957031-32.894531v-17.070313h17.066407v17.070313c-.015625 11.707031 3.453125 23.160156 9.957031 32.894531l.148438.214843c3.246093 4.953126 5.417968 10.535157 6.363281 16.382813h-50.003907c.945313-5.851563 3.109376-11.433594 6.355469-16.394531zm-7.109375 76.332031h51.199219v17.066406c0 4.710938-3.820313 8.53125-8.53125 8.53125h-34.136719c-4.710937 0-8.53125-3.820312-8.53125-8.53125zm51.199219-42.667969v25.601563h-51.199219v-25.601563zm-8.53125-100.695312h-34.136719v-17.066407h34.136719zm-145.070313-51.199219c0-4.710938 3.824219-8.53125 8.535157-8.53125h102.398437c4.714844 0 8.535156 3.820312 8.535156 8.53125v17.066406h-8.535156c-9.425781 0-17.066406 7.640625-17.066406 17.066406v17.066407c.019531 6.070312 3.273438 11.671875 8.535156 14.695312v19.441407c.007813 8.261718-2.414062 16.34375-6.957031 23.242187-.054687.066406-.105469.132813-.152344.207031-6.5 9.726563-9.964843 21.167969-9.957031 32.867188v69.976562c0 3.523438.734375 7.011719 2.160156 10.238282h-44.828125v-17.066407c9.425781 0 17.066407-7.640625 17.066407-17.066406v-153.601563c0-9.425781-7.640626-17.066406-17.066407-17.066406h-42.667969zm-59.730468 34.132812h102.398437v153.601563h-102.398437zm17.066406 170.667969h68.265625v17.066407h-68.265625zm315.734375-145.066406v-34.132813h34.132813v34.132813zm-412.828125-221.242187 230.402344-93.867188c2.070312-.828125 4.378906-.828125 6.449218 0l230.402344 93.867188c4.347656 1.777343 6.441406 6.734374 4.683594 11.089843-1.828125 4.300781-6.734375 6.378907-11.09375 4.695313l-1.867188-.769532-.265624-.101562-218.667969-89.042969c-2.035157-.835937-4.214844-1.265625-6.417969-1.265625-2.207031.003906-4.394531.433594-6.441406 1.273438l-218.625 89.078125-.210938.085937-1.886718.765625c-4.367188 1.785157-9.351563-.308593-11.136719-4.675781-1.785157-4.363281.308593-9.351562 4.675781-11.132812zm0 0"/><path d="m153.601562 435.226562c18.851563 0 34.132813-15.28125 34.132813-34.132812-.027344-7.519531-2.566406-14.816406-7.210937-20.734375l5.777343-8.664063c2.617188-3.917968 1.558594-9.21875-2.363281-11.832031-3.921875-2.617187-9.21875-1.558593-11.835938 2.363281l-5.015624 7.535157c-12.738282-5.503907-27.539063-2.75-37.441407 6.96875-9.90625 9.714843-12.941406 24.460937-7.683593 37.300781 5.257812 12.839844 17.765624 21.21875 31.640624 21.195312zm0-51.199218c1.242188.007812 2.476563.152344 3.6875.425781l-2.253906 3.414063c-2.617187 3.921874-1.558594 9.222656 2.363282 11.835937 3.921874 2.617187 9.21875 1.558594 11.835937-2.363281l.664063-1c.484374 1.542968.742187 3.140625.769531 4.753906 0 9.425781-7.640625 17.066406-17.066407 17.066406-9.425781 0-17.066406-7.640625-17.066406-17.066406s7.640625-17.066406 17.066406-17.066406zm0 0"/><path d="m324.269531 153.628906c0-37.703125-30.566406-68.269531-68.269531-68.269531s-68.265625 30.566406-68.265625 68.269531 30.5625 68.265625 68.265625 68.265625c37.6875-.042969 68.226562-30.582031 68.269531-68.265625zm-59.734375 50.429688v-41.898438h41.898438c-3.664063 21.441406-20.457032 38.234375-41.898438 41.898438zm41.898438-58.964844h-41.898438v-41.898438c21.441406 3.664063 38.234375 20.460938 41.898438 41.898438zm-58.964844-41.898438v41.898438h-41.898438c3.664063-21.4375 20.457032-38.234375 41.898438-41.898438zm-41.898438 58.964844h41.898438v41.898438c-21.441406-3.664063-38.234375-20.457032-41.898438-41.898438zm0 0"/><path d="m128 341.359375h8.535156c4.710938 0 8.53125-3.820313 8.53125-8.53125 0-4.714844-3.820312-8.535156-8.53125-8.535156h-8.535156c-4.710938 0-8.53125 3.820312-8.53125 8.535156 0 4.710937 3.820312 8.53125 8.53125 8.53125zm0 0"/><path d="m170.667969 341.359375h8.535156c4.710937 0 8.53125-3.820313 8.53125-8.53125 0-4.714844-3.820313-8.535156-8.53125-8.535156h-8.535156c-4.710938 0-8.535157 3.820312-8.535157 8.535156 0 4.710937 3.824219 8.53125 8.535157 8.53125zm0 0"/><path d="m426.667969 375.496094v17.066406c0 4.710938 3.820312 8.53125 8.535156 8.53125 4.710937 0 8.53125-3.820312 8.53125-8.53125v-17.066406c0-4.714844-3.820313-8.535156-8.53125-8.535156-4.714844 0-8.535156 3.820312-8.535156 8.535156zm0 0"/></g></svg>