<svg id="Capa_1" enable-background="new 0 0 512 512" height="512" viewBox="0 0 512 512" width="512" xmlns="http://www.w3.org/2000/svg"><g><g><g><path d="m161.386 98.848h-11.269l-38.205 22.63-17.523 43.089v45.674l25.566 38.78 20.97 12.065 20.461 2.716c36.398-9.78 63.198-42.991 63.198-82.477s-26.8-72.697-63.198-82.477z" fill="#ffe07d"/><path d="m98.189 181.325c0-39.485 26.8-72.696 63.197-82.477-7.085-1.904-14.528-2.936-22.214-2.936-47.172 0-85.412 38.24-85.412 85.412s38.241 85.412 85.412 85.412c7.687 0 15.129-1.032 22.214-2.936-36.397-9.779-63.197-42.99-63.197-82.475z" fill="#ffd064"/></g><path d="m406.462 41.891h-169.217v300.924l64.55-.924 16.189 26.91h23.811l62-26.243 11.348-12.017v-282.358z" fill="#ecf4ff"/><g><path d="m239.739 333.842v-285.659l15.146-6.292h-37.263l-15.145 6.292v285.659l6.135 9.383 36.917-.529z" fill="#cbe2ff"/></g><path d="m417.638 7.487h-186.595l-6.459 4.946v29.458l6.723 6.292h186.331c5.888 0 10.661-4.773 10.661-10.661v-19.374c0-5.888-4.773-10.661-10.661-10.661z" fill="#80b4fb"/><path d="m226.584 37.522v-19.374c0-5.888 4.773-10.661 10.661-10.661h-37.263c-5.888 0-10.661 4.773-10.661 10.661v19.375c0 5.888 4.773 10.661 10.661 10.661h37.263c-5.888-.001-10.661-4.774-10.661-10.662z" fill="#5490f9"/><path d="m345.663 266.683h-36.853l-5.682 4.541v72.883l14.856 24.694h23.811l11.896-5.035v-89.054c0-4.434-3.593-8.029-8.028-8.029z" fill="#9dc6fb"/><path d="m308.81 266.683h-36.854c-4.434 0-8.028 3.594-8.028 8.028v67.722l37.866-.542 7.015 11.661v-86.869z" fill="#80b4fb"/><path d="m455.239 332.615c-10.724-17.294-29.893-6.478-31.513-5.663l-82.623 34.557s3.975-17.808-14.494-22.944c-23.49-6.534-37.503-10.632-46.997-13.043h-7.2l-24.143 4.726-39.657 24.211-30.843 37.956 3.833 6 36.02 21.667 7.962 1.322c10.212-5.225 22.912-5.649 34.917-2.311l41.013 11.41c7.179 1.631 23.479 3.613 39.051-6.638.008-.004.013-.008.013-.008 4.334-2.51 100.847-58.407 105.181-60.918 3.161-2.081 18.885-14.007 9.48-30.324z" fill="#ffcebe"/><g><path d="m186.951 396.934c-2.985-1.891-3.833-5.928-1.708-8.9 14.249-19.935 32.455-36.813 53.691-49.236 13.792-8.069 21.111-10.622 40.678-13.275-11.194-2.842-16.103-3.34-22.832-2.714l-.002-.002c-38.36 4.308-45.278 5.378-63.419 15.991-22.273 13.029-41.212 30.958-55.749 52.176l2.157 4.941 65 41.17h5.337l.57-1.051c3.643-6.722 8.837-11.524 14.909-14.631z" fill="#ffb1a0"/></g><path d="m213.633 439.329-51.523-32.772-5.717-1.642-4.75 3.875-14.252 27.079 61.877 39.546 4.227-1.299 13.032-23.324c2.227-3.984.957-9.014-2.894-11.463z" fill="#ecf4ff"/><path d="m152.889 411.506c1.994-3.346 5.599-5.118 9.221-4.949l-28.15-17.905c-4.094-2.604-9.531-1.312-12.015 2.856l-13.284 22.286 1.941 4.954 27.496 17.572z" fill="#cbe2ff"/><path d="m206.092 475.767-70.905-45.101-4.125 1.158-38.877 67.841-1.167 3.5 1.786 1.322h96.404c3.776 0 7.253-2.051 9.08-5.355l9.418-17.033c1.22-2.206.513-4.979-1.614-6.332z" fill="#bd7b62"/><path d="m93.575 501.093 39.681-67.277c.813-1.379 2.312-2.075 3.801-1.961l-28.937-18.406c-2.275-1.447-5.297-.721-6.667 1.601l-46.746 79.255c-2.655 4.501.59 10.182 5.815 10.182h32.283c-.099-1.123.124-2.298.77-3.394z" fill="#ad6a50"/></g><g><path d="m158.107 156.493c0 4.142 3.357 7.5 7.5 7.5s7.5-3.358 7.5-7.5c0-15.241-11.32-28.022-26.433-31.257v-1.426c0-4.142-3.357-7.5-7.5-7.5s-7.5 3.358-7.5 7.5v1.426c-15.112 3.235-26.433 16.017-26.433 31.257s11.32 28.022 26.433 31.257v33.509c-6.718-2.623-11.433-8.649-11.433-15.654 0-4.142-3.357-7.5-7.5-7.5s-7.5 3.358-7.5 7.5c0 15.241 11.32 28.022 26.433 31.257v1.426c0 4.142 3.357 7.5 7.5 7.5s7.5-3.358 7.5-7.5v-1.426c15.112-3.235 26.433-16.017 26.433-31.257s-11.32-28.022-26.433-31.257v-33.508c6.718 2.622 11.433 8.649 11.433 15.653zm-26.433 15.653c-6.718-2.623-11.433-8.649-11.433-15.653 0-7.005 4.715-13.031 11.433-15.654zm26.433 33.459c0 7.005-4.715 13.031-11.433 15.654v-31.308c6.718 2.623 11.433 8.649 11.433 15.654z"/><path d="m252.512 92.53c0-4.142-3.357-7.5-7.5-7.5s-7.5 3.358-7.5 7.5v7.63c0 4.142 3.357 7.5 7.5 7.5s7.5-3.358 7.5-7.5z"/><path d="m295.045 92.53c0-4.142-3.357-7.5-7.5-7.5s-7.5 3.358-7.5 7.5v7.63c0 4.142 3.357 7.5 7.5 7.5s7.5-3.358 7.5-7.5z"/><path d="m337.579 92.53c0-4.142-3.357-7.5-7.5-7.5s-7.5 3.358-7.5 7.5v7.63c0 4.142 3.357 7.5 7.5 7.5s7.5-3.358 7.5-7.5z"/><path d="m380.113 92.53c0-4.142-3.357-7.5-7.5-7.5s-7.5 3.358-7.5 7.5v7.63c0 4.142 3.357 7.5 7.5 7.5s7.5-3.358 7.5-7.5z"/><path d="m252.512 134.79c0-4.142-3.357-7.5-7.5-7.5s-7.5 3.358-7.5 7.5v7.63c0 4.142 3.357 7.5 7.5 7.5s7.5-3.358 7.5-7.5z"/><path d="m295.045 134.79c0-4.142-3.357-7.5-7.5-7.5s-7.5 3.358-7.5 7.5v7.63c0 4.142 3.357 7.5 7.5 7.5s7.5-3.358 7.5-7.5z"/><path d="m337.579 134.79c0-4.142-3.357-7.5-7.5-7.5s-7.5 3.358-7.5 7.5v7.63c0 4.142 3.357 7.5 7.5 7.5s7.5-3.358 7.5-7.5z"/><path d="m380.113 134.79c0-4.142-3.357-7.5-7.5-7.5s-7.5 3.358-7.5 7.5v7.63c0 4.142 3.357 7.5 7.5 7.5s7.5-3.358 7.5-7.5z"/><path d="m252.512 177.049c0-4.142-3.357-7.5-7.5-7.5s-7.5 3.358-7.5 7.5v7.63c0 4.142 3.357 7.5 7.5 7.5s7.5-3.358 7.5-7.5z"/><path d="m295.045 177.049c0-4.142-3.357-7.5-7.5-7.5s-7.5 3.358-7.5 7.5v7.63c0 4.142 3.357 7.5 7.5 7.5s7.5-3.358 7.5-7.5z"/><path d="m337.579 177.049c0-4.142-3.357-7.5-7.5-7.5s-7.5 3.358-7.5 7.5v7.63c0 4.142 3.357 7.5 7.5 7.5s7.5-3.358 7.5-7.5z"/><path d="m380.113 177.049c0-4.142-3.357-7.5-7.5-7.5s-7.5 3.358-7.5 7.5v7.63c0 4.142 3.357 7.5 7.5 7.5s7.5-3.358 7.5-7.5z"/><path d="m245.012 211.809c-4.143 0-7.5 3.358-7.5 7.5v7.63c0 4.142 3.357 7.5 7.5 7.5s7.5-3.358 7.5-7.5v-7.63c0-4.142-3.357-7.5-7.5-7.5z"/><path d="m287.545 211.809c-4.143 0-7.5 3.358-7.5 7.5v7.63c0 4.142 3.357 7.5 7.5 7.5s7.5-3.358 7.5-7.5v-7.63c0-4.142-3.357-7.5-7.5-7.5z"/><path d="m330.079 211.809c-4.143 0-7.5 3.358-7.5 7.5v7.63c0 4.142 3.357 7.5 7.5 7.5s7.5-3.358 7.5-7.5v-7.63c0-4.142-3.357-7.5-7.5-7.5z"/><path d="m372.613 211.809c-4.143 0-7.5 3.358-7.5 7.5v7.63c0 4.142 3.357 7.5 7.5 7.5s7.5-3.358 7.5-7.5v-7.63c0-4.142-3.358-7.5-7.5-7.5z"/><path d="m135.506 381.058c-3.112-1.299-6.536-1.599-9.89-.801-4.272 1.016-7.863 3.653-10.111 7.424l-10.464 17.555c-.786.032-1.572.135-2.344.321-3.216.772-6.023 2.848-7.703 5.697l-46.745 79.254c-2.632 4.461-2.67 9.811-.101 14.308 2.569 4.499 7.195 7.184 12.376 7.184h128.686c6.503 0 12.497-3.535 15.644-9.226l9.418-17.033c2.445-4.422 1.856-9.748-1.115-13.526l9.919-17.752c3.605-6.45 2.296-14.373-2.791-19.357 9.387-11.572 25.415-12.333 38.207-8.776l41.014 11.41c.115.032.231.062.349.088 7.39 1.679 26.498 4.289 44.663-7.573l25.142-14.561c3.585-2.076 4.808-6.665 2.731-10.249-2.075-3.584-6.662-4.806-10.249-2.731-26.592 15.401-25.698 14.898-25.698 14.898-12.812 8.435-26.167 7.173-33.098 5.626l-40.834-11.36c-22.34-6.211-43.06-.384-54.719 14.858l-59.456-37.818c13.358-17.701 30.105-32.692 48.812-43.635 16.807-9.832 22.597-10.759 60.389-15.001 3.76-.341 6.758-.254 10.955.462 8.917 1.541 23.357 5.947 56.11 15.059 6.693 1.861 10.536 6.633 9.139 14.298-.616 2.986-2.666 7.864-9.461 6.962-14.944-1.98-50.528-6.553-50.886-6.599-4.104-.525-7.866 2.374-8.395 6.483-.528 4.108 2.374 7.867 6.482 8.395.357.046 35.912 4.615 50.827 6.591 12.068 1.6 21.142-4.907 24.978-14.868 82.349-34.444 79.313-33.146 80.138-33.571 9.746-5.083 16.938-4.078 21.377 2.982 5.95 10.494-4.415 18.358-7.002 20.102l-49.273 28.538c-3.584 2.076-4.808 6.665-2.731 10.249s6.666 4.807 10.249 2.731l49.477-28.655c.125-.072.247-.148.367-.227 9.448-6.224 22.577-21.723 11.851-40.333-.04-.07-.082-.139-.124-.208-8.275-13.347-23.062-16.889-38.969-9.532v-120.303c0-4.142-3.357-7.5-7.5-7.5s-7.5 3.358-7.5 7.5v126.724l-46.452 19.429v-70.266c0-8.562-6.966-15.528-15.528-15.528h-73.706c-8.562 0-15.528 6.966-15.528 15.528v40.598c-.115.01-.227.019-.343.03-.033.003-.066.007-.099.01-.015.002-.03.002-.044.004-23.488 2.638-35.689 4.118-45.966 7.386 0-12.334 0-255.485 0-267.055h197.667v108.141c0 4.142 3.357 7.5 7.5 7.5s7.5-3.358 7.5-7.5v-108.86c7.584-2.18 13.155-9.167 13.155-17.443v-19.375c-.002-10.014-8.149-18.161-18.163-18.161h-217.655c-10.014 0-18.161 8.147-18.161 18.161v19.375c0 8.276 5.571 15.263 13.155 17.443v51.806c-15.977-11.989-35.568-18.648-55.805-18.648-51.231 0-92.912 41.68-92.912 92.913 0 51.232 41.681 92.912 92.912 92.912 20.236 0 39.827-6.659 55.805-18.648v73.973c-23.888 12.915-44.026 30.967-59.473 51.771zm56.221 114.458c-.506.916-1.471 1.484-2.517 1.484h-127.376l44.645-75.694.94.598 92.483 58.827zm17.883-49.846c.495.315.659.963.373 1.477l-9.16 16.392-81.986-52.15 9.554-16.028c.198-.333.488-.461.696-.511.206-.048.523-.064.851.143zm106.702-171.473h29.354c.291 0 .528.237.528.528v70.464c-3.558-7.215-9.957-11.719-17.572-13.836-4.432-1.233-8.519-2.377-12.31-3.442zm-44.881.528c0-.291.237-.528.528-.528h29.353v49.492c-14.338-4.036-22.598-6.283-28.857-7.473-.053-.01-.105-.019-.158-.029-.29-.055-.583-.111-.866-.161zm-74.608-256.564c0-1.743 1.418-3.161 3.161-3.161h217.656c1.743 0 3.161 1.418 3.161 3.161v19.375c0 1.743-1.418 3.161-3.161 3.161-6.602 0-206.574 0-217.655 0-1.743 0-3.161-1.418-3.161-3.161v-19.375zm-57.649 240.8c-42.961 0-77.912-34.951-77.912-77.912s34.951-77.913 77.912-77.913c21.002 0 41.18 8.547 55.805 23.547v108.731c-14.625 15-34.803 23.547-55.805 23.547z"/></g></g></svg>