<svg id="Capa_1" enable-background="new 0 0 512 512" height="512" viewBox="0 0 512 512" width="512" xmlns="http://www.w3.org/2000/svg"><g><g><g><path d="m460.622 243.103 39.38-58.001c-5.647-25.193-16.421-48.445-31.17-68.61l-178.035-3.799-119.07.606c-23.867 31.207-38.056 70.208-38.056 112.529 0 102.402 83.013 185.415 185.415 185.415 41.072 0 79.017-13.364 109.746-35.967z" fill="#b7efff"/><g fill="#99e6fc"><path d="m437.502 339.228c-31.21 40.316-78.67 67.417-132.56 71.482 4.669.352 9.385.533 14.144.533 41.072 0 79.017-13.364 109.746-35.967z"/><path d="m500.002 185.102c-5.647-25.193-16.421-48.445-31.17-68.61l-28.724-.613c21.667 29.374 34.865 65.373 36.013 104.396z"/></g><path d="m459.639 128.067c3.531-3.839 6.577-7.702 9.193-11.574-33.729-46.117-88.235-76.078-149.746-76.078-60.08 0-113.476 28.584-147.358 72.885 5.193 22.079 15.904 48.26 37.491 48.125 37.295-.233 58.141-28.34 98.578-14.574 40.437 13.764 81.87 57.302 151.842-18.784z" fill="#5de1c4"/><path d="m452.66 135.35c2.296-2.299 4.62-4.718 6.979-7.283 3.531-3.839 6.577-7.702 9.193-11.574-33.729-46.117-88.235-76.078-149.746-76.078-4.714 0-9.382.196-14.008.542 63.499 4.836 118.043 41.663 147.582 94.393z" fill="#0ed2b3"/><path d="m500.002 185.102c-20.766-.829-46.54 2.473-60.744 20.684-26.377 33.816-4.058 43.961-28.744 73.72-11.704 14.109-16.553 65.399 18.317 95.771 45.885-33.752 75.669-88.118 75.669-149.448 0-13.993-1.56-27.62-4.498-40.727z" fill="#5de1c4"/><path d="m500.002 185.102c-8.806-.351-18.51.046-27.853 2.002 2.654 12.491 4.062 25.442 4.062 38.724 0 53.773-22.9 102.19-59.468 136.058 3.353 4.752 7.351 9.265 12.088 13.39 45.885-33.752 75.669-88.118 75.669-149.448 0-13.992-1.56-27.619-4.498-40.726z" fill="#0ed2b3"/><path d="m220.154 218.951c8.351-16.948 27.552-25.691 45.536-19.9 7.668 2.469 15.83 6.388 23.927 12.46 31.706 23.78 46.899 51.523 40.954 71.339-5.945 19.817-105.688 45.557-131.45-3.643-21.121-40.341 8.541-34.903 21.033-60.256z" fill="#5de1c4"/><path d="m289.617 211.51c-8.096-6.072-16.259-9.991-23.927-12.46-10.946-3.525-22.338-1.657-31.465 4.159 3.897-.049 7.86.522 11.766 1.779 7.668 2.469 15.83 6.388 23.927 12.46 31.706 23.78 46.899 51.523 40.954 71.339-1.558 5.195-9.569 10.794-20.996 15.347 21.316-4.688 38.343-13.448 40.695-21.286 5.945-19.815-9.247-47.558-40.954-71.338z" fill="#0ed2b3"/></g><g><path d="m47.134 237.09h69.31v119.575h-69.31z" fill="#6c5e69"/><path d="m351.904 288.914-15.963 46.504c-1.219 3.551-4.558 5.935-8.312 5.935h-320.129l32.537 95.998 158.754 22.344 179.121-22.344 50.31-148.437z" fill="#82aee3"/><path d="m406.094 288.914-50.31 148.437h22.129l50.31-148.437z" fill="#528fd8"/><path d="m47.133 252.401h69.31v16.456h-69.31z" fill="#574d56"/><path d="m156.076 252.401h-148.576l6.999-50.981h134.579z" fill="#82aee3"/><path d="m149.078 201.42h-18.899l6.998 50.981h18.899z" fill="#528fd8"/><g><path d="m138.507 292.36h88.718v48.993h-88.718z" fill="#ff6470"/><path d="m208.862 292.36h18.364v48.993h-18.364z" fill="#ff4555"/></g><g><path d="m227.225 292.36h88.718v48.993h-88.718z" fill="#ffe177"/><path d="m297.58 292.36h18.364v48.993h-18.364z" fill="#ffd15b"/></g><g><path d="m182.866 243.367h88.718v48.993h-88.718z" fill="#82aee3"/><path d="m253.221 243.367h18.364v48.993h-18.364z" fill="#528fd8"/></g><path d="m40.037 437.351h337.875l-6.684 19.069c-3.184 9.084-11.76 15.166-21.386 15.166h-307.301c-13.102 0-19.889-15.635-10.942-25.206z" fill="#ff6470"/><path d="m355.784 437.351-6.684 19.069c-3.185 9.084-11.76 15.166-21.386 15.166h22.128c9.626 0 18.202-6.081 21.386-15.166l6.684-19.069z" fill="#ff4555"/></g></g><g><path d="m512 225.829c0-106.388-86.557-192.915-192.914-192.915-46.506 0-91.427 16.78-126.487 47.25-33.894 29.455-56.466 69.748-63.8 113.756h-73.736v-26.756h9.827c4.143 0 7.5-3.358 7.5-7.5s-3.357-7.5-7.5-7.5h-9.827v-11.845c0-4.142-3.357-7.5-7.5-7.5s-7.5 3.358-7.5 7.5v11.845h-9.828c-4.143 0-7.5 3.358-7.5 7.5s3.357 7.5 7.5 7.5h9.828v26.756h-25.565c-3.748 0-6.921 2.767-7.431 6.48l-6.998 50.981c-.294 2.147.354 4.316 1.778 5.95 1.424 1.633 3.485 2.57 5.652 2.57h32.134v27.073c0 4.143 3.357 7.5 7.5 7.5s7.5-3.357 7.5-7.5v-27.073h54.309v73.952h-54.308v-17.879c0-4.143-3.357-7.5-7.5-7.5s-7.5 3.357-7.5 7.5v17.879h-32.134c-2.417 0-4.687 1.165-6.096 3.13-1.408 1.965-1.783 4.488-1.008 6.777l31.097 91.748-5.374 5.749c-6.211 6.646-7.82 15.957-4.197 24.301 3.622 8.344 11.522 13.527 20.619 13.527h100.587c4.143 0 7.5-3.357 7.5-7.5s-3.357-7.5-7.5-7.5h-100.587c-4.553 0-6.401-3.444-6.86-4.5-.458-1.056-1.712-4.76 1.396-8.085l6.216-6.649h324.043l-3.186 9.087c-2.127 6.069-7.878 10.147-14.309 10.147h-177.713c-4.143 0-7.5 3.357-7.5 7.5s3.357 7.5 7.5 7.5h177.714c12.793 0 24.231-8.111 28.465-20.186 14.646-41.787 6.589-19.218 19.507-56.903 69.408-31.056 114.186-100.069 114.186-176.167zm-82.395-61.74c11.638-7.463 23.408-17.737 35.554-30.945 1.151-1.251 2.267-2.52 3.344-3.803 9.539 14.721 16.963 30.933 21.839 48.204-18.907.545-34.453 5.008-45.96 13.148-4.541-9.829-9.543-18.67-14.777-26.604zm-260.668-33.441c10.951 31.159 27.388 38.277 40.115 38.277h.214c16.607-.104 29.815-5.131 42.59-9.992 17.269-6.572 32.182-12.248 53.524-4.982 6.899 2.349 13.932 5.661 21.376 9.168 5.216 2.457 10.608 4.997 16.188 7.305.938.388 1.909.572 2.864.572 2.944 0 5.737-1.745 6.934-4.635 1.583-3.828-.236-8.214-4.063-9.797-5.247-2.171-10.475-4.634-15.53-7.015-7.491-3.529-15.238-7.178-22.935-9.798-26.458-9.006-45.387-1.803-63.693 5.163-12.06 4.589-23.451 8.924-37.349 9.011-.036 0-.072 0-.108 0-16.16 0-24.942-22.7-29.113-38.631 32.965-41.187 83.68-67.38 139.136-67.38 56.986 0 107.8 26.931 140.384 68.733-1.657 2.149-3.446 4.271-5.352 6.342-12.329 13.407-23.408 22.605-33.297 28.85-8.303-10.669-16.854-19.308-24.823-26.202-29.804-25.783-57.711-33.315-58.885-33.624-4.008-1.05-8.106 1.344-9.158 5.35s1.344 8.107 5.35 9.159c.254.066 25.683 6.931 52.879 30.459 6.789 5.873 14.035 13.128 21.14 21.98-13.148 5.536-23.673 5.776-31.775 4.972-4.109-.4-7.793 2.604-8.201 6.727-.407 4.122 2.604 7.794 6.727 8.201 2.634.26 5.252.391 7.863.391 11.614 0 23.029-2.589 34.483-7.885 5.91 8.837 11.525 18.925 16.464 30.399-14.338 18.619-15.299 31.193-16.147 42.3-.761 9.962-1.361 17.831-11.997 30.651-1.539 1.857-2.943 4.1-4.195 6.696h-48.641c-3.204 0-6.054 2.035-7.094 5.065l-15.963 46.504c-.179.521-.669.87-1.219.87h-4.186v-33.971c7.905-4.554 12.712-9.546 14.312-14.877 7.064-23.548-9.656-54.008-43.638-79.495-8.038-6.029-16.829-10.604-26.128-13.599-21.438-6.902-44.387 3.073-54.563 23.725-3.517 7.136-8.848 11.472-14.004 15.666-1.799 1.464-3.649 2.969-5.38 4.565h-11.177c-4.143 0-7.5 3.358-7.5 7.5v41.494h-24.169c-2.856-8.127-5.122-16.485-6.767-24.959h11.646c2.167 0 4.229-.938 5.652-2.57 1.425-1.633 2.072-3.803 1.778-5.95l-6.998-50.981c-.51-3.713-3.683-6.48-7.431-6.48h-5.053c4.171-22.978 12.806-44.354 24.913-63.272zm-22.93 203.206v-33.994h73.719v33.993h-73.719zm177.382-53.162c-.185.569-1.47 2.296-4.899 4.612-.795-.287-1.652-.444-2.546-.444h-36.859v-41.494c0-4.142-3.357-7.5-7.5-7.5h-54.613c3.583-3.56 7.107-7.911 9.911-13.601 6.858-13.919 22.208-20.683 36.51-16.076 7.712 2.483 15.021 6.292 21.726 11.321 27.94 20.957 43.32 46.348 38.27 63.182zm-59.305-29.825v33.994h-73.718v-33.994zm-29.358 48.993h73.718v33.993h-73.718zm-218.626-54.959 4.939-35.981h121.498l4.939 35.981zm107.843 15h5.23c1.544 8.652 3.684 17.207 6.394 25.557-2.681 1.143-4.56 3.803-4.56 6.902v41.493h-7.064zm-78.529 169.951-27.453-80.998h309.668c6.957 0 13.147-4.421 15.406-11.001l14.225-41.438h60.502l-45.227 133.438h-327.121zm364.746-64.28c2.129 3.078 4.457 6 6.978 8.757-4.043 2.672-8.213 5.19-12.502 7.543zm19.227-.111c-5.251-5.461-9.548-11.761-12.817-18.801l18.756-55.339c.775-2.289.4-4.812-1.008-6.777-1.409-1.965-3.679-3.13-6.096-3.13h-9.641c11.494-15.028 12.352-26.243 13.112-36.206.613-8.036 1.199-15.714 7.641-26.407 5.044 15.293 8.869 32.655 10.827 52.322.385 3.869 3.646 6.758 7.454 6.758.248 0 .499-.013.752-.038 4.121-.41 7.13-4.084 6.72-8.206-2.469-24.808-7.759-46.222-14.714-64.639 11.634-9.849 28.812-12.456 43.493-12.51 2.056 10.803 3.133 21.948 3.133 33.34.001 55.206-25.552 106.37-67.612 139.633z"/><path d="m319.836 78.218c-3.783-1.689-8.217.006-9.907 3.788l-5.238 11.723c-1.689 3.782.006 8.217 3.788 9.907.994.444 2.033.654 3.056.654 2.868 0 5.605-1.654 6.852-4.442l5.238-11.723c1.689-3.782-.007-8.217-3.789-9.907z"/><path d="m467.836 284.86h-14.428c-4.143 0-7.5 3.357-7.5 7.5s3.357 7.5 7.5 7.5h14.428c4.143 0 7.5-3.357 7.5-7.5s-3.357-7.5-7.5-7.5z"/><path d="m76.958 292.36v-10.133c0-4.143-3.357-7.5-7.5-7.5s-7.5 3.357-7.5 7.5v10.133c0 4.143 3.357 7.5 7.5 7.5s7.5-3.357 7.5-7.5z"/><path d="m101.618 292.36v-10.133c0-4.143-3.357-7.5-7.5-7.5s-7.5 3.357-7.5 7.5v10.133c0 4.143 3.357 7.5 7.5 7.5s7.5-3.357 7.5-7.5z"/><path d="m306.762 365.845h-194.943c-4.143 0-7.5 3.357-7.5 7.5s3.357 7.5 7.5 7.5h194.942c4.143 0 7.5-3.357 7.5-7.5s-3.357-7.5-7.499-7.5z"/><path d="m380.185 341.636 4.831-14.254c1.329-3.923-.773-8.181-4.696-9.511-3.923-1.331-8.181.772-9.511 4.696l-4.831 14.254c-1.329 3.923.773 8.181 4.696 9.511.798.271 1.609.398 2.408.398 3.126.001 6.043-1.969 7.103-5.094z"/></g></g></svg>