<svg id="Layer_1" enable-background="new 0 0 512 512" height="512" viewBox="0 0 512 512" width="512" xmlns="http://www.w3.org/2000/svg"><g><path d="m22.5 148.74h151.5v280.83h-151.5z" fill="#ff5a39"/><path d="m22.5 148.74h151.5v30h-151.5z" fill="#668fa3"/><path d="m239.633 202.914h72.237v29.982h-72.237z" fill="#ff5a39"/><path d="m287.797 202.914h24.073v29.982h-24.073z" fill="#ff2727" transform="matrix(-1 0 0 -1 599.666 435.811)"/><path d="m296.87 202.91h-42.24l5-120.48h32.24z" fill="#d4efff"/><path d="m296.87 202.91h-18.03l-5-120.48h18.03z" fill="#b7d4e2"/><path d="m351.633 202.914h72.237v29.982h-72.237z" fill="#ff5a39"/><path d="m399.797 202.914h24.073v29.982h-24.073z" fill="#ff2727" transform="matrix(-1 0 0 -1 823.666 435.809)"/><path d="m408.87 202.909h-42.24l5-120.48h32.24z" fill="#d4efff"/><path d="m408.87 202.909h-18.03l-5-120.48h18.03z" fill="#b7d4e2"/><path d="m174.002 232.896h315.498v196.675h-315.498z" fill="#ffc73b"/><path d="m174.002 232.896h315.498v30h-315.498z" fill="#668fa3"/><g fill="#d4efff"><path d="m204.19 322.41h39.41v107.16h-39.41z"/><path d="m276.43 322.41h39.4v107.16h-39.4z"/><path d="m348.67 322.41h39.4v107.16h-39.4z"/><path d="m420.9 322.41h39.41v107.16h-39.41z"/></g><path d="m22.5 405.79h151.5v23.78h-151.5z" fill="#ff2727"/><path d="m204.19 405.79h39.41v23.78h-39.41z" fill="#b7d4e2"/><path d="m276.43 405.79h39.4v23.78h-39.4z" fill="#b7d4e2"/><path d="m348.67 405.79h39.4v23.78h-39.4z" fill="#b7d4e2"/><path d="m420.9 405.79h39.41v23.78h-39.41z" fill="#b7d4e2"/><g fill="#668fa3"><path d="m204.19 322.41h39.41v30h-39.41z"/><path d="m276.43 322.41h39.4v30h-39.4z"/><path d="m348.67 322.41h39.4v30h-39.4z"/><path d="m420.9 322.41h39.41v30h-39.41z"/></g></g><g><path d="m504.5 422.071h-7.5v-24.158c0-4.142-3.358-7.5-7.5-7.5s-7.5 3.358-7.5 7.5v24.158h-14.191v-99.658c0-4.142-3.358-7.5-7.5-7.5h-39.404c-4.142 0-7.5 3.358-7.5 7.5v99.658h-17.833v-99.658c0-4.142-3.358-7.5-7.5-7.5h-39.404c-4.142 0-7.5 3.358-7.5 7.5v99.658h-17.833v-99.658c0-4.142-3.358-7.5-7.5-7.5h-39.404c-4.142 0-7.5 3.358-7.5 7.5v99.658h-17.833v-99.658c0-4.142-3.358-7.5-7.5-7.5h-39.404c-4.142 0-7.5 3.358-7.5 7.5v99.658h-15.192v-151.675h23.539c4.142 0 7.5-3.358 7.5-7.5s-3.358-7.5-7.5-7.5h-23.539v-15h300.498v15h-242.395c-4.142 0-7.5 3.358-7.5 7.5s3.358 7.5 7.5 7.5h242.395v92.694c0 4.142 3.358 7.5 7.5 7.5s7.5-3.358 7.5-7.5v-122.694h7.5c4.142 0 7.5-3.358 7.5-7.5s-3.358-7.5-7.5-7.5h-73.13v-22.482c0-4.142-3.358-7.5-7.5-7.5h-7.805l-4.378-105.485h2.182c4.142 0 7.5-3.358 7.5-7.5s-3.358-7.5-7.5-7.5h-52.237c-4.142 0-7.5 3.358-7.5 7.5s3.358 7.5 7.5 7.5h2.182l-4.378 105.485h-7.805c-4.142 0-7.5 3.358-7.5 7.5v22.482h-24.761v-22.482c0-4.142-3.358-7.5-7.5-7.5h-7.805l-4.378-105.485h2.182c4.142 0 7.5-3.358 7.5-7.5s-3.358-7.5-7.5-7.5h-52.237c-4.142 0-7.5 3.358-7.5 7.5s3.358 7.5 7.5 7.5h2.182l-4.378 105.485h-7.805c-4.142 0-7.5 3.358-7.5 7.5v22.482h-50.631v-69.154h7.5c4.142 0 7.5-3.358 7.5-7.5s-3.358-7.5-7.5-7.5h-105.643c-4.142 0-7.5 3.358-7.5 7.5s3.358 7.5 7.5 7.5h83.145v15h-136.502v-15h18.336c4.142 0 7.5-3.358 7.5-7.5s-3.358-7.5-7.5-7.5h-40.836c-4.142 0-7.5 3.358-7.5 7.5s3.358 7.5 7.5 7.5h7.5v265.828h-7.5c-4.142 0-7.5 3.358-7.5 7.5s3.358 7.5 7.5 7.5h497c4.142 0 7.5-3.358 7.5-7.5s-3.358-7.499-7.5-7.499zm-125.672-332.142h17.846l4.377 105.485h-26.601zm-19.695 120.486h57.237v14.982h-57.237zm-92.305-120.486h17.846l4.377 105.485h-26.601zm-19.695 120.486h57.237v14.982h-57.237zm-217.133-24.172h136.502v235.828h-45.535v-49.119c0-4.142-3.358-7.5-7.5-7.5s-7.5 3.358-7.5 7.5v49.119h-15.667v-49.119c0-4.142-3.358-7.5-7.5-7.5s-7.5 3.358-7.5 7.5v49.119h-45.3zm422.809 143.67v15h-24.404v-15zm-72.238 0v15h-24.404v-15zm-72.237 0v15h-24.404v-15zm-72.236 0v15h-24.404v-15zm-24.404 92.158v-62.158h24.404v62.158zm72.237 0v-62.158h24.404v62.158zm72.236 0v-62.158h24.404v62.158zm72.237 0v-62.158h24.404v62.158z"/><path d="m204.194 284.913c-4.142 0-7.5 3.358-7.5 7.5s3.358 7.5 7.5 7.5h39.404c4.142 0 7.5-3.358 7.5-7.5s-3.358-7.5-7.5-7.5z"/><path d="m276.431 284.913c-4.142 0-7.5 3.358-7.5 7.5s3.358 7.5 7.5 7.5h39.404c4.142 0 7.5-3.358 7.5-7.5s-3.358-7.5-7.5-7.5z"/><path d="m348.667 284.913c-4.142 0-7.5 3.358-7.5 7.5s3.358 7.5 7.5 7.5h39.404c4.142 0 7.5-3.358 7.5-7.5s-3.358-7.5-7.5-7.5z"/><path d="m420.904 284.913c-4.142 0-7.5 3.358-7.5 7.5s3.358 7.5 7.5 7.5h39.404c4.142 0 7.5-3.358 7.5-7.5s-3.358-7.5-7.5-7.5z"/><path d="m52.486 201.634c-4.142 0-7.5 3.358-7.5 7.5v21.561c0 4.142 3.358 7.5 7.5 7.5s7.5-3.358 7.5-7.5v-21.561c0-4.142-3.358-7.5-7.5-7.5z"/><path d="m83.153 238.195c4.142 0 7.5-3.358 7.5-7.5v-21.561c0-4.142-3.358-7.5-7.5-7.5s-7.5 3.358-7.5 7.5v21.561c0 4.142 3.358 7.5 7.5 7.5z"/><path d="m113.82 238.195c4.142 0 7.5-3.358 7.5-7.5v-21.561c0-4.142-3.358-7.5-7.5-7.5s-7.5 3.358-7.5 7.5v21.561c0 4.142 3.358 7.5 7.5 7.5z"/><path d="m144.487 238.195c4.142 0 7.5-3.358 7.5-7.5v-21.561c0-4.142-3.358-7.5-7.5-7.5s-7.5 3.358-7.5 7.5v21.561c0 4.142 3.358 7.5 7.5 7.5z"/><path d="m52.251 292.725c4.142 0 7.5-3.358 7.5-7.5v-21.561c0-4.142-3.358-7.5-7.5-7.5s-7.5 3.358-7.5 7.5v21.561c0 4.142 3.358 7.5 7.5 7.5z"/><path d="m82.917 292.725c4.142 0 7.5-3.358 7.5-7.5v-21.561c0-4.142-3.358-7.5-7.5-7.5s-7.5 3.358-7.5 7.5v21.561c0 4.142 3.358 7.5 7.5 7.5z"/><path d="m113.584 292.725c4.142 0 7.5-3.358 7.5-7.5v-21.561c0-4.142-3.358-7.5-7.5-7.5s-7.5 3.358-7.5 7.5v21.561c0 4.142 3.358 7.5 7.5 7.5z"/><path d="m144.251 292.725c4.142 0 7.5-3.358 7.5-7.5v-21.561c0-4.142-3.358-7.5-7.5-7.5s-7.5 3.358-7.5 7.5v21.561c0 4.142 3.358 7.5 7.5 7.5z"/><path d="m52.369 310.921c-4.142 0-7.5 3.358-7.5 7.5v21.561c0 4.142 3.358 7.5 7.5 7.5s7.5-3.358 7.5-7.5v-21.561c0-4.142-3.358-7.5-7.5-7.5z"/><path d="m83.036 310.921c-4.142 0-7.5 3.358-7.5 7.5v21.561c0 4.142 3.358 7.5 7.5 7.5s7.5-3.358 7.5-7.5v-21.561c0-4.142-3.358-7.5-7.5-7.5z"/><path d="m113.702 310.921c-4.142 0-7.5 3.358-7.5 7.5v21.561c0 4.142 3.358 7.5 7.5 7.5s7.5-3.358 7.5-7.5v-21.561c0-4.142-3.358-7.5-7.5-7.5z"/><path d="m144.369 310.921c-4.142 0-7.5 3.358-7.5 7.5v21.561c0 4.142 3.358 7.5 7.5 7.5s7.5-3.358 7.5-7.5v-21.561c0-4.142-3.358-7.5-7.5-7.5z"/><path d="m52.133 365.452c-4.142 0-7.5 3.358-7.5 7.5v21.561c0 4.142 3.358 7.5 7.5 7.5s7.5-3.358 7.5-7.5v-21.561c0-4.142-3.358-7.5-7.5-7.5z"/><path d="m144.133 402.013c4.142 0 7.5-3.358 7.5-7.5v-21.561c0-4.142-3.358-7.5-7.5-7.5s-7.5 3.358-7.5 7.5v21.561c0 4.142 3.358 7.5 7.5 7.5z"/></g></svg>