<svg height="512" viewBox="0 0 512 512" width="512" xmlns="http://www.w3.org/2000/svg"><g id="Farm_Field" data-name="Farm Field"><g id="Filled"><path d="m501.667 360v.013c-110.213.553-149.667 39.987-149.667 39.987s-48 40-32 104a8 8 0 0 0 8 8h184v-152z" fill="#49ad4d"/><path d="m72 88a48 48 0 0 1 48 48v248a0 0 0 0 1 0 0h-96a0 0 0 0 1 0 0v-248a48 48 0 0 1 48-48z" fill="#e2dbd5"/><path d="m120 207.314a163.772 163.772 0 0 1 -96 54.286v122.4h96z" fill="#d4ccc7"/><circle cx="48" cy="184" fill="#efebe8" r="16"/><circle cx="80" cy="200" fill="#efebe8" r="8"/><path d="m504 504s-94.723-142.072-488-143.977v-.023h-16v152h512z" fill="#81c784"/><path d="m241.172 512h270.828l-8-8s-39.459-59.166-173.139-101.647a216.687 216.687 0 0 1 -89.689 109.647z" fill="#66bb6a"/><rect fill="#49ad4d" height="96" rx="32" width="64" x="440" y="224"/><rect fill="#81c784" height="96" rx="32" width="64" x="392" y="240"/><circle cx="400" cy="96" fill="#ea6049" r="56"/><path d="m456 285.227a71.821 71.821 0 0 1 -56 26.773c-2.391 0-4.748-.137-7.077-.368a32.007 32.007 0 0 0 31.077 24.368 32 32 0 0 0 32-32z" fill="#66bb6a"/><circle cx="412" cy="260" fill="#c8e6c9" r="12"/><circle cx="440" cy="272" fill="#c8e6c9" r="8"/><path d="m439.892 56.71c1.6 43.152-35.493 81.045-79.119 79.242a55.991 55.991 0 0 0 79.119-79.242z" fill="#de513e"/><circle cx="376" cy="72" fill="#f27c6d" r="16"/><circle cx="408" cy="96" fill="#f27c6d" r="8"/><path d="m96 272h72v120h-72z" fill="#de513e"/><path d="m96 364.752v27.248h72v-71.472a98.622 98.622 0 0 1 -72 44.224z" fill="#cf3f30"/><path d="m248 208h-72l-56 32-24 32h152z" fill="#a1887f"/><path d="m195.134 208a97.351 97.351 0 0 1 -87.061 47.9l-12.073 16.1h152v-64z" fill="#9c7b70"/><path d="m168 383.267v8.733h160v-120l-8.172-10.9a176.123 176.123 0 0 1 -151.828 122.167z" fill="#de513e"/><path d="m328 392h-160v-120l24-32 56-32 56 32 24 32z" fill="#ea6049"/><path d="m200 296h96v96h-96z" fill="#fff"/><circle cx="168" cy="224" fill="#bcaaa4" r="8"/><circle cx="136" cy="240" fill="#bcaaa4" r="8"/><g fill="#f27c6d"><circle cx="244" cy="228" r="12"/><circle cx="272" cy="240" r="8"/></g></g><g id="Outline"><path d="m510.656 499.562c-1.431-2.147-36.347-53.071-147.86-94.667a8 8 0 1 0 -5.592 14.991c106.044 39.556 139.827 88.09 140.14 88.552a8 8 0 0 0 13.312-8.876z"/><path d="m8 432c170.8 0 258.884 18.421 264.5 18.421 9.756 0 10.951-14.332 1.268-15.9-75.98-12.289-165.397-18.521-265.768-18.521a8 8 0 0 0 0 16z"/><path d="m469.122 497.855c-1.369-1.142-34.656-28.216-132.013-50.945a8 8 0 0 0 -3.638 15.581c127.871 29.853 125.589 59.933 136.674 46.631a8 8 0 0 0 -1.023-11.267z"/><path d="m8 472c51.93 0 75.6 1.04 80.024 1.04 10.439 0 10.658-15.716.211-16-25.784-.689-52.779-1.04-80.235-1.04a8 8 0 0 0 0 16z"/><path d="m410.872 496.533c-2.882-1.109-72.733-27.268-258.654-36.992a8 8 0 0 0 -.836 15.978c245.994 12.866 257.194 49.262 264.085 31.353a8 8 0 0 0 -4.595-10.339z"/><path d="m232 496h-224a8 8 0 0 0 0 16h224a8 8 0 0 0 0-16z"/><path d="m504 352q-12.581 0-24 .634v-16.634a8 8 0 0 0 -16 0v17.812c-11.656 1.1-22.3 2.652-32 4.5v-15.112a40.067 40.067 0 0 0 32-39.2v-32a40 40 0 0 0 -80 0v32a40.067 40.067 0 0 0 32 39.2v18.631a218.252 218.252 0 0 0 -43.535 15.528 8 8 0 0 0 7.07 14.354c21.957-10.821 61.373-23.713 124.465-23.713a8 8 0 0 0 0-16zm-80-72a8 8 0 0 0 -8 8v38.624a24.038 24.038 0 0 1 -16-22.624v-32a24 24 0 0 1 48 0v32a24.038 24.038 0 0 1 -16 22.624v-38.624a8 8 0 0 0 -8-8z"/><path d="m504 392c-30.4 0-57.529 1.881-80.638 5.591a8 8 0 1 0 2.536 15.8c22.273-3.578 48.551-5.391 78.102-5.391a8 8 0 0 0 0-16z"/><path d="m504 424c-10.771 0-21.6.4-32.2 1.182a8 8 0 0 0 1.18 15.956c10.206-.755 20.642-1.138 31.02-1.138a8 8 0 0 0 0-16z"/><path d="m88.887 268.35c-1.363 2.65-.846-5.6-.887 123.65a8 8 0 0 0 8 8h232a8 8 0 0 0 8-8c-.566-124.321 1.414-120.781-1.6-124.8-25.471-33.589-23.894-32.7-26.431-34.146-59.762-34.145-56.934-33.054-59.969-33.054-75.047.365-72.508-.924-75.969 1.054l-56 32c-1.998 1.146-26.477 34.003-27.144 35.296zm71.113 115.65h-56v-104h56zm76.687-40-28.687 28.687v-57.374zm-17.374-40h57.374l-28.687 28.687zm0 80 28.687-28.687 28.687 28.687zm68.687-11.313-28.687-28.687 28.687-28.687zm10.593-126.562 21.407 28.542v109.333h-16c-.015-94.276 1.344-90.957-3.189-94.381a8.052 8.052 0 0 0 -4.811-1.619c-103.507 0-99.439-1.249-102.654 3.56-2.481 3.71-.848 1.594-1.346 92.44h-16v-109.333l21.407-28.542 50.593-28.911zm-120.468-30.125h39.751c-31.149 18.053-30.527 16.868-32.276 19.2l-21.6 28.8h-52l13.407-17.875z"/><circle cx="232" cy="264" r="8"/><circle cx="304" cy="448" r="8"/><circle cx="120" cy="464" r="8"/><circle cx="96" cy="96" r="8"/><circle cx="264" cy="264" r="8"/><path d="m465.458 216.537a8 8 0 0 0 2.6 15.787 23.99 23.99 0 0 1 27.942 23.676v32a23.955 23.955 0 0 1 -12.9 21.29 8 8 0 1 0 7.409 14.18 39.9 39.9 0 0 0 21.491-35.47v-32a40.009 40.009 0 0 0 -46.542-39.463z"/><path d="m400 160a64 64 0 1 0 -64-64 64.072 64.072 0 0 0 64 64zm0-112a48 48 0 1 1 -48 48 48.055 48.055 0 0 1 48-48z"/><circle cx="400" cy="8" r="8"/><circle cx="328" cy="40" r="8"/><circle cx="472" cy="168" r="8"/><circle cx="464" cy="32" r="8"/><circle cx="336" cy="160" r="8"/><circle cx="488" cy="96" r="8"/><circle cx="312" cy="96" r="8"/><circle cx="400" cy="184" r="8"/><path d="m8 352a8 8 0 0 0 0 16h56a8 8 0 0 0 0-16h-32v-200h80v48a8 8 0 0 0 16 0v-48h8a8 8 0 0 0 0-16h-8a55.811 55.811 0 0 0 -3.223-18.762 8 8 0 0 0 -15.077 5.362 39.864 39.864 0 0 1 2.3 13.4h-80a40.211 40.211 0 0 1 34.057-39.567 8 8 0 1 0 -2.357-15.826 56.307 56.307 0 0 0 -47.7 55.393h-8a8 8 0 0 0 0 16h8v200z"/></g></g></svg>