<svg height="512pt" viewBox="0 0 512 512" width="512pt" xmlns="http://www.w3.org/2000/svg"><path d="m504.5 256c0 137.242188-111.257812 248.5-248.5 248.5s-248.5-111.257812-248.5-248.5 111.257812-248.5 248.5-248.5 248.5 111.257812 248.5 248.5zm0 0" fill="#eeba63"/><path d="m256 464.5c-114.964844 0-208.5-93.53125-208.5-208.5s93.535156-208.5 208.5-208.5c114.96875 0 208.5 93.53125 208.5 208.5s-93.53125 208.5-208.5 208.5zm0 0" fill="#f3e077"/><path d="m87.5 256c0-108.222656 82.882812-197.4375 188.5-207.535156-6.582031-.628906-13.253906-.964844-20-.964844-114.964844 0-208.5 93.53125-208.5 208.5s93.535156 208.5 208.5 208.5c6.746094 0 13.417969-.335938 20-.964844-105.617188-10.097656-188.5-99.3125-188.5-207.535156zm0 0" fill="#f5c956"/><path d="m244.972656 399.554688c-48.117187-1.605469-87.414062-26.46875-87.414062-52.128907 0-13.636719 12.03125-33.683593 27.265625-33.683593 16.839843 0 30.476562 23.65625 60.148437 28.871093v-64.960937c-36.890625-14.035156-80.199218-31.277344-80.199218-82.601563 0-50.925781 37.695312-75.386719 80.199218-81.402343v-11.226563c0-5.613281 6.417969-10.828125 15.238282-10.828125 7.617187 0 15.234374 5.214844 15.234374 10.828125v10.023437c24.863282.800782 71.777344 7.21875 71.777344 34.886719 0 10.824219-7.214844 32.878907-24.859375 32.878907-13.234375 0-20.851562-12.832032-46.917969-14.835938v58.542969c36.492188 13.636719 78.996094 32.480469 78.996094 86.613281 0 49.722656-32.078125 79.796875-78.996094 87.417969v11.625c0 5.617187-7.617187 10.828125-15.234374 10.828125-8.824219 0-15.238282-5.210938-15.238282-10.828125zm4.011719-185.257813v-47.71875c-18.046875 3.609375-25.664063 12.832031-25.664063 22.457031 0 11.628906 10.425782 18.847656 25.664063 25.261719zm22.453125 74.183594v53.730469c13.632812-3.207032 24.460938-10.824219 24.460938-25.261719 0-13.230469-10.023438-21.652344-24.460938-28.46875zm0 0" fill="#eeba63"/><path d="m256.484375 214.296875s0-47.660156 0-47.71875c0-4.660156-4.398437-8.269531-8.972656-7.351563-19.84375 3.96875-31.691407 15.109376-31.691407 29.808594 0 17.226563 16.167969 26.242188 30.25 32.175782 4.832032 2.035156 10.414063-1.664063 10.414063-6.914063zm-15-11.992187c-9.179687-5.359376-10.664063-9.660157-10.664063-13.269532 0-5.167968 3.789063-9.488281 10.664063-12.421875zm0 0"/><path d="m260.210938 427.902344c10.753906 0 22.734374-7.523438 22.734374-18.324219v-5.394531c49.605469-10.363282 78.996094-44.976563 78.996094-93.648438 0-26.585937-9.289062-47.574218-28.398437-64.160156-14.902344-12.9375-33.566407-21.121094-50.597657-27.636719v-44.789062c8.566407 1.707031 14.5 4.785156 19.875 7.570312 6.144532 3.183594 11.949219 6.195313 19.542969 6.195313 22.867188 0 32.359375-26.300782 32.359375-40.382813 0-10.769531-5.480468-25.511719-31.601562-34.601562-13.773438-4.792969-29.25-6.683594-40.175782-7.417969v-2.890625c0-10.800781-11.980468-18.324219-22.734374-18.324219-12.75 0-22.738282 8.046875-22.738282 18.324219v4.855469c-21.578125 4.019531-39.992187 12.480468-53.546875 24.652344-17.683593 15.875-26.648437 37.113281-26.648437 63.121093 0 54.730469 44.894531 74.230469 80.195312 87.769531v50.121094c-9.894531-3.417968-17.800781-9.082031-24.964844-14.207031-8.976562-6.421875-17.453124-12.492187-27.683593-12.492187-9.398438 0-18.421875 5.253906-25.402344 14.800781-5.863281 8.019531-9.363281 17.882812-9.363281 26.382812 0 15.066407 10.667968 30.191407 29.269531 41.496094 16.113281 9.792969 36.535156 15.984375 58.144531 17.714844v2.941406c0 10.277344 9.988282 18.324219 22.738282 18.324219zm-95.152344-80.476563c0-10.949219 9.960937-26.183593 19.765625-26.183593 5.414062 0 11.691406 4.492187 18.953125 9.691406 9.949218 7.121094 22.328125 15.980468 39.898437 19.066406 4.53125.796875 8.796875-2.789062 8.796875-7.386719v-64.960937c0-3.113282-1.921875-5.902344-4.832031-7.007813-16.453125-6.261719-36.929687-14.050781-51.886719-26.140625-16.019531-12.949218-23.476562-28.664062-23.476562-49.453125 0-57.347656 51.574218-70.835937 73.746094-73.976562 3.699218-.519531 6.449218-3.6875 6.449218-7.425781v-11.21875c.078125-.777344 2.644532-3.332032 7.738282-3.332032 3.964843 0 7.230468 2.375 7.734374 3.507813v9.839843c0 4.050782 3.214844 7.367188 7.257813 7.496094 7.625.246094 27.070313 1.417969 42.992187 6.957032 14.285157 4.972656 21.527344 11.847656 21.527344 20.4375 0 4.097656-1.5 11.078124-4.789062 16.714843-3.359375 5.75-7.585938 8.664063-12.570313 8.664063-3.9375 0-7.585937-1.894532-12.636719-4.511719-7.375-3.820313-17.472656-9.054687-33.703124-10.304687-4.304688-.328126-8.074219 3.167968-8.074219 7.480468v58.542969c0 3.128906 1.941406 5.929687 4.875 7.023437 17.039062 6.371094 36.433593 14.210938 50.890625 26.757813 15.628906 13.570313 23.226562 30.851563 23.226562 52.832031 0 43.347656-26.496094 72.507813-72.695312 80.011719-3.632813.589844-6.296875 3.726563-6.296875 7.402344v11.449219c-.507813 1.132812-3.773438 3.507812-7.738281 3.507812-5.089844 0-7.65625-2.558594-7.738282-3.328125v-10.023437c0-4.042969-3.207031-7.359376-7.25-7.496094-45.882812-1.53125-80.164062-24.828125-80.164062-44.632813zm0 0"/><path d="m266.8125 348.050781c1.726562 1.367188 4.03125 2.003907 6.34375 1.460938 19.21875-4.523438 30.242188-16.390625 30.242188-32.5625 0-19.425781-16.410157-29.421875-28.757813-35.25-4.886719-2.308594-10.703125 1.382812-10.703125 6.78125v53.730469c0 2.375 1.148438 4.472656 2.875 5.839843zm12.125-46.691406c6.539062 4.707031 9.460938 9.65625 9.460938 15.589844 0 7.792969-4.636719 12.199219-9.460938 14.746093zm0 0"/><path d="m256 0c-51.890625 0-101.875 15.457031-144.542969 44.699219-3.417969 2.339843-4.285156 7.011719-1.945312 10.425781 2.339843 3.417969 7.007812 4.289062 10.425781 1.945312 40.160156-27.523437 87.210938-42.070312 136.0625-42.070312 64.375 0 124.894531 25.066406 170.414062 70.585938 45.519532 45.519531 70.585938 106.039062 70.585938 170.414062s-25.066406 124.894531-70.585938 170.414062c-45.519531 45.519532-106.039062 70.585938-170.414062 70.585938s-124.894531-25.066406-170.414062-70.585938c-45.519532-45.519531-70.585938-106.039062-70.585938-170.414062 0-69.449219 29.996094-135.554688 82.300781-181.359375 3.117188-2.730469 3.429688-7.464844.703125-10.582031-2.730468-3.117188-7.46875-3.429688-10.585937-.703125-55.554688 48.65625-87.417969 118.871093-87.417969 192.644531 0 68.378906 26.628906 132.667969 74.980469 181.019531 48.351562 48.351563 112.640625 74.980469 181.019531 74.980469s132.667969-26.628906 181.019531-74.980469c48.351563-48.351562 74.980469-112.640625 74.980469-181.019531s-26.628906-132.667969-74.980469-181.019531c-48.351562-48.351563-112.640625-74.980469-181.019531-74.980469zm0 0"/><path d="m414.070312 392.003906c3.234376 2.589844 7.953126 2.070313 10.542969-1.164062 30.558594-38.136719 47.386719-86.023438 47.386719-134.839844 0-119.101562-96.898438-216-216-216s-216 96.898438-216 216 96.898438 216 216 216c55.089844 0 107.585938-20.832031 147.824219-58.65625 3.019531-2.839844 3.167969-7.585938.328125-10.605469-2.835938-3.015625-7.582032-3.164062-10.601563-.324219-37.445312 35.199219-86.292969 54.585938-137.550781 54.585938-110.832031 0-201-90.167969-201-201s90.167969-201 201-201 201 90.167969 201 201c0 46.078125-15.246094 89.464844-44.09375 125.460938-2.589844 3.234374-2.066406 7.953124 1.164062 10.542968zm0 0"/></svg>