<svg id="Capa_1" enable-background="new 0 0 512.003 512.003" height="512" viewBox="0 0 512.003 512.003" width="512" xmlns="http://www.w3.org/2000/svg"><g><path d="m458.095 271.067h-404.188v215.214c0 10.063 8.158 18.221 18.221 18.221h367.745c10.063 0 18.221-8.158 18.221-18.221v-215.214z" fill="#dd5c6e"/><path d="m53.907 271.067v215.214c0 10.063 8.158 18.221 18.221 18.221h154.906c-57.438-44.573-62.061-164.016-59.077-233.435z" fill="#d4364c"/><path d="m384.581 340.451h-79.572c-10.221 0-18.508 8.286-18.508 18.508v145.544h116.587v-145.544c.001-10.222-8.286-18.508-18.507-18.508z" fill="#f5e2a2"/><path d="m403.088 437.642c-18.174 14.228-46.915 31.995-50.294 66.861h14.647c2.855-22.754 19.71-36.519 35.647-48.563z" fill="#eda749"/><path d="m286.501 413.963v18.113c24.446-15.474 46.177-48.82 48.816-91.625h-14.59c-2.176 31.68-15.867 57.686-34.226 73.512z" fill="#eda749"/><path d="m194.667 323.646h-140.76v88.086h151.489v-77.356c.001-5.926-4.803-10.73-10.729-10.73z" fill="#cde9fa"/><path d="m213.118 452.024h-163.755c-8.134 0-14.727-6.594-14.727-14.727v-10.839c0-8.134 6.593-14.727 14.727-14.727h163.755c8.133 0 14.727 6.594 14.727 14.727v10.839c0 8.134-6.593 14.727-14.727 14.727z" fill="#3a5092"/><path d="m407.887 40.387h-303.771c-27.729 0-50.208 22.479-50.208 50.208v127.347h404.188v-127.347c-.001-27.729-22.48-50.208-50.209-50.208z" fill="#dd5c6e"/><path d="m203.2 200.909c-31.228-13.888-32.514-107.65-23.958-160.523h-75.127c-27.729 0-50.208 22.479-50.208 50.208v112.559c54.913 3.57 177.662 10.373 149.293-2.244z" fill="#d4364c"/><path d="m238.65 148.05h-36.178c-4.142 0-7.5-3.358-7.5-7.5s3.358-7.5 7.5-7.5h36.178c5.34 0 9.851-3.433 9.851-7.497v-31.858c0-4.063-4.511-7.496-9.851-7.496h-39.896c-4.142 0-7.5-3.358-7.5-7.5s3.358-7.5 7.5-7.5h39.896c13.703 0 24.851 10.092 24.851 22.496v31.858c0 12.405-11.148 22.497-24.851 22.497z" fill="#fff"/><path d="m481.889 271.067h-451.776c-8.349 0-15.117-6.768-15.117-15.118v-22.89c0-8.349 6.768-15.117 15.117-15.117h451.776c8.349 0 15.117 6.768 15.117 15.117v22.89c.001 8.35-6.768 15.118-15.117 15.118z" fill="#3a5092"/><path d="m203.341 217.942h-173.228c-8.349 0-15.117 6.768-15.117 15.117v22.89c0 8.349 6.768 15.118 15.117 15.118h179.181c-8.514-11.718-9.924-37.949-5.953-53.125z" fill="#173180"/><path d="m207.745 71.798h-91.781c-4.101 0-7.426 3.325-7.426 7.426v77.665c0 11.897 9.644 21.541 21.541 21.541h63.55c11.897 0 21.541-9.644 21.541-21.541v-77.665c0-4.101-3.324-7.426-7.425-7.426z" fill="#f6ee86"/><path d="m196.686 11.293c-4.801 0-9.376.972-13.537 2.729-6.075-4.115-13.404-6.52-21.294-6.52-7.891 0-15.219 2.405-21.295 6.519-4.162-1.757-8.736-2.729-13.537-2.729-19.237 0-34.832 15.595-34.832 34.832s15.595 34.832 34.832 34.832c5.23 0 10.187-1.16 14.638-3.226 5.852 3.677 12.772 5.811 20.194 5.811s14.341-2.134 20.194-5.811c4.451 2.065 9.408 3.226 14.638 3.226 19.237 0 34.832-15.595 34.832-34.832-.001-19.236-15.596-34.831-34.833-34.831z" fill="#f5e2a2"/><g><path d="m395.402 123.226h-75.423c-4.143 0-7.5-3.358-7.5-7.5s3.357-7.5 7.5-7.5h75.423c4.143 0 7.5 3.358 7.5 7.5s-3.358 7.5-7.5 7.5z" fill="#fff"/></g><g><path d="m115.235 217.942h15v53.125h-15z" fill="#3a5092"/><g fill="#173180"><path d="m248.501 217.942h15v53.125h-15z"/><path d="m381.767 217.942h15v53.125h-15z"/></g></g><g fill="#eda749"><path d="m141.607 140.159c-4.142 0-7.5-3.358-7.5-7.5v-18.179c0-4.142 3.358-7.5 7.5-7.5s7.5 3.358 7.5 7.5v18.179c0 4.142-3.358 7.5-7.5 7.5z"/><path d="m182.101 140.159c-4.142 0-7.5-3.358-7.5-7.5v-18.179c0-4.142 3.358-7.5 7.5-7.5s7.5 3.358 7.5 7.5v18.179c0 4.142-3.358 7.5-7.5 7.5z"/></g><path d="m453.487 178.43h-394.972c-13.188 0-23.879 10.691-23.879 23.879v15.633h442.73v-15.632c0-13.189-10.691-23.88-23.879-23.88z" fill="#4e5660"/><path d="m157.755 411.731 47.642-47.642v-29.714c0-5.926-4.804-10.73-10.73-10.73h-28.36l-88.086 88.086z" fill="#a2ddfd"/><path d="m352.952 398.382h-16.315c-4.143 0-7.5 3.358-7.5 7.5s3.357 7.5 7.5 7.5h16.315c4.143 0 7.5-3.358 7.5-7.5s-3.357-7.5-7.5-7.5zm131.914-187.737v-8.335c0-13.013-7.963-24.199-19.271-28.947v-82.768c0-28.335-20.257-52.274-48.166-56.922-4.088-.687-7.95 2.08-8.631 6.166-.68 4.086 2.08 7.95 6.166 8.63 20.646 3.439 35.631 21.155 35.631 42.126v80.335h-231.556c2.31-4.164 3.631-8.951 3.631-14.041v-77.382c9.505-7.415 15.774-18.786 16.303-31.621h140.764c4.143 0 7.5-3.358 7.5-7.5s-3.357-7.5-7.5-7.5h-142.851c-7.246-21.946-30.838-34.104-52.906-27.152-13.709-7.643-30.534-7.649-44.252 0-23.277-7.334-47.862 6.606-53.761 30.077-23.525 7.736-39.56 29.603-39.56 54.784v82.767c-11.309 4.748-19.271 15.934-19.271 28.947v8.334c-11.069 1.463-19.64 10.954-19.64 22.416v22.89c0 12.471 10.146 22.618 22.617 22.618h16.295v125.866c-10.863 1.451-19.271 10.771-19.271 22.025v10.839c0 11.253 8.409 20.574 19.271 22.025v26.96c0 14.183 11.538 25.721 25.721 25.721h10.067c4.142 0 7.5-3.358 7.5-7.5s-3.358-7.5-7.5-7.5h-10.067c-5.912 0-10.721-4.81-10.721-10.721v-26.757h151.711c12.256 0 22.227-9.971 22.227-22.227v-10.839c0-12.256-9.971-22.227-22.227-22.227h-.222v-69.856c0-10.052-8.178-18.23-18.229-18.23h-133.261v-37.579h389.188v207.714c0 5.912-4.81 10.721-10.721 10.721h-29.286v-138.043c0-14.341-11.667-26.008-26.007-26.008h-79.572c-14.341 0-26.008 11.667-26.008 26.008v138.044h-160.2c-4.142 0-7.5 3.358-7.5 7.5s3.358 7.5 7.5 7.5h321.073c14.183 0 25.721-11.539 25.721-25.721v-207.715h16.294c12.472 0 22.618-10.147 22.618-22.618v-22.89c0-11.46-8.572-20.952-19.641-22.414zm-89.278 286.358h-101.587v-138.044c0-6.07 4.939-11.008 11.008-11.008h79.572c6.069 0 11.007 4.938 11.007 11.008zm-257.946-476.071c2.339.988 5.021.725 7.124-.7 10.279-6.962 23.858-6.989 34.177 0 2.103 1.425 4.785 1.689 7.123.7 17.904-7.558 37.952 5.617 37.952 25.193 0 19.694-20.622 33.242-38.814 24.803-2.306-1.069-4.995-.899-7.146.453-9.892 6.215-22.508 6.219-32.408 0-2.154-1.353-4.843-1.521-7.146-.453-18.028 8.363-38.813-4.854-38.813-24.803 0-19.588 20.061-32.748 37.951-25.193zm70.028 66.071v69.886c0 7.742-6.299 14.041-14.041 14.041h-63.55c-7.742 0-14.041-6.299-14.041-14.041l-.006-69.888c8.222 2.213 17 1.913 25.089-.956 12.99 6.659 28.455 6.671 41.468 0 8.052 2.856 16.827 3.178 25.081.958zm-146.263 3.592c0-16.586 9.402-31.223 23.74-38.278 1.621 11.006 7.494 20.64 15.89 27.19v77.382c0 5.09 1.321 9.877 3.631 14.041h-43.261zm-19.271 111.715c0-9.032 7.348-16.38 16.379-16.38h394.971c9.032 0 16.38 7.348 16.38 16.38v8.132h-427.73zm170.982 216.921c3.985 0 7.227 3.242 7.227 7.227v10.839c0 3.985-3.242 7.227-7.227 7.227h-163.755c-3.985 0-7.227-3.242-7.227-7.227v-10.839c0-3.985 3.242-7.227 7.227-7.227zm-18.451-88.085c1.781 0 3.229 1.449 3.229 3.23v69.856h-136.489v-73.085h133.26zm294.84-75.196c0 4.2-3.417 7.618-7.618 7.618h-451.776c-4.2 0-7.617-3.418-7.617-7.618v-22.89c0-4.2 3.417-7.618 7.617-7.618h451.776c4.201 0 7.618 3.417 7.618 7.618z"/></g></svg>