<svg id="Capa_1" enable-background="new 0 0 513.705 513.705" height="512" viewBox="0 0 513.705 513.705" width="512" xmlns="http://www.w3.org/2000/svg"><g><g><path d="m420.819 76.428c-17.808-9.428-57.095-15.305-82.748-25.084 10.833 24.002-173.222 24.025-162.443.018-17.467 6.678-41.18 11.539-59.838 16.955 20.167 34.347 13.097 390.83 13.097 390.83 0 12.96 86.86 23.74 148.5 23.74 42.051 0 90.87-15.018 117.432-22.322v-249.64l38.411 14.917 58.227-80.223c-21.01-24.632-54.843-60.828-70.638-69.191z" fill="#f8e883"/><path d="m276.853 472.888c-61.64 0-137.966-10.78-137.966-23.74 0 0 0-212.365 0-267.52 0-47.985-10.371-86.141-23.097-113.31-8.634 2.506-17.274 5.13-22.903 8.11-15.795 8.362-49.628 44.559-70.639 69.191l23.031 51.042 44.071 29.884 29.537-15.62v258.223c0 12.96 76.326 23.74 137.966 23.74s137.966-10.78 137.966-23.74v-8.582c-26.563 7.304-75.915 12.322-117.966 12.322z" fill="#eec06b"/><path d="m394.819 181.548v29.377l29.537 15.62 23.837-16.77z" fill="#eec06b"/><path d="m503.02 159.632c-3.037-3.855-6.999-8.663-11.563-14.013l-50.168 60.504 2.718 18.065 24.104-3.88 34.674-41.817c4.516-5.446 4.613-13.302.235-18.859z" fill="#5a86cc"/><path d="m424.356 226.545 15.443 8.167c6.343 3.73 14.454 2.308 19.151-3.356l9.161-11.049-26.822-14.185z" fill="#3b68b0"/><path d="m10.685 159.632c-4.378 5.557-4.281 13.413.235 18.858l43.836 52.866c4.696 5.664 12.808 7.085 19.15 3.356l15.443-8.167-67.101-80.925c-4.564 5.35-8.525 10.157-11.563 14.012z" fill="#3b68b0"/><path d="m256.853 121.44s92.051-46.094 81.218-70.095c-9.611-3.664-17.313-7.874-21.249-13.026h-119.939c-3.943 5.161-11.66 9.375-21.255 13.044-10.779 24.006 81.225 70.077 81.225 70.077z" fill="#5a86cc"/><path d="m316.822 38.319c7.999 10.471-59.969 46.121-59.969 46.121s-67.969-35.651-59.969-46.121 26.849-17.502 59.969-17.502 51.97 7.031 59.969 17.502z" fill="#c8c3ca"/><circle cx="330.887" cy="181.92" fill="#f3f1f4" r="30"/></g><g><path d="m256.853 500.388c-30.796 0-65.671-2.656-93.291-7.105-14.403-2.32-25.929-4.971-34.257-7.877-4.9-1.71-17.918-6.253-17.918-16.258v-92.545c0-4.143 3.358-7.5 7.5-7.5s7.5 3.357 7.5 7.5v91.041c3.182 2.448 15.71 7.388 45.488 11.739 26.119 3.816 57.092 6.005 84.979 6.005s58.859-2.188 84.978-6.005c29.778-4.352 42.306-9.291 45.488-11.739v-286.096c0-38.277 6.94-63.92 10.706-75.015-7.638-2.856-18.479-5.567-29.81-8.4-13.484-3.372-28.609-7.154-41.331-11.985-5.768 4.95-12.826 10.188-21.209 15.758-21.804 14.487-44.538 25.782-45.495 26.256-2.097 1.037-4.558 1.037-6.654 0-.398-.197-9.903-4.913-22.545-12.156-3.594-2.06-4.838-6.643-2.779-10.236s6.642-4.838 10.236-2.779c7.888 4.52 14.612 8.072 18.414 10.035 7.089-3.663 24.362-12.866 40.622-23.679 25.773-17.14 33.243-27.875 33.922-32.567-4.146-1.75-7.911-3.639-11.188-5.719-4.428 5.21-13.072 12.359-30.213 23.012-14.832 9.218-29.059 16.696-29.657 17.01-2.182 1.145-4.786 1.145-6.968 0-.598-.313-14.825-7.792-29.657-17.01-17.142-10.652-25.786-17.802-30.214-23.012-3.275 2.079-7.036 3.966-11.179 5.715.66 4.424 7.354 14.344 30.182 30.049 3.413 2.348 4.276 7.017 1.928 10.43s-7.018 4.276-10.43 1.928c-6.637-4.565-12.356-8.903-17.173-13.035-12.723 4.832-27.849 8.615-41.335 11.987-11.331 2.834-22.172 5.544-29.81 8.4 3.766 11.096 10.706 36.737 10.706 75.015v165.055c0 4.143-3.358 7.5-7.5 7.5s-7.5-3.357-7.5-7.5v-123.228l-33.839 17.895c-9.539 5.507-21.523 3.365-28.565-5.127l-43.838-52.867c-6.727-8.111-6.875-20.008-.353-28.287 16.074-20.402 63.242-73.893 84.583-85.19 10.591-5.607 27.16-9.788 44.702-14.215 22.173-5.595 49.769-12.559 56.844-21.819.007-.009.014-.019.021-.027 10.375-13.551 32.55-20.422 65.909-20.422 33.363 0 55.538 6.871 65.911 20.426.006.008.012.016.018.023 7.075 9.261 34.671 16.225 56.845 21.819 17.542 4.427 34.11 8.607 44.701 14.214 21.343 11.3 68.51 64.789 84.583 85.191 6.523 8.279 6.375 20.176-.353 28.287l-43.835 52.866c-7.042 8.492-19.027 10.632-28.564 5.128l-15.31-8.097c-1.996-1.056-3.411-2.954-3.851-5.169s.142-4.51 1.583-6.248l43.802-52.826c-13.029-16.061-36.31-42.398-51.101-54.574-3.474 11.268-8.965 34.283-8.965 67.19v287.6c0 10.005-13.018 14.548-17.918 16.258-8.328 2.906-19.854 5.557-34.257 7.877-27.618 4.449-62.493 7.105-93.289 7.105zm179.166-276.159 7.286 3.854c.1.053.199.107.296.165 3.187 1.874 7.215 1.168 9.575-1.678l43.835-52.866c2.242-2.704 2.292-6.67.117-9.43-1.678-2.13-3.566-4.464-5.627-6.957zm-413.815-66.913c-2.061 2.493-3.949 4.828-5.627 6.958-2.174 2.76-2.125 6.726.117 9.43l43.835 52.866c2.361 2.847 6.388 3.551 9.576 1.678.097-.058.195-.112.295-.165l7.286-3.854zm29.117 11.616 39.911 48.134 20.154-10.658v-24.859c0-32.901-5.489-55.914-8.965-67.19-14.79 12.175-38.071 38.513-51.1 54.573zm-19.26-23.228 9.513 11.474c14.106-17.116 45.188-52.833 61.403-61.417 8.797-4.657 22.735-8.143 38.874-12.179 11.315-2.83 22.921-5.732 33.26-9.183-3.563-4.394-5.913-8.541-7.078-12.482-9.354 2.932-19.71 5.545-30.285 8.213-16.641 4.199-32.359 8.166-41.353 12.927-13.132 6.952-43.004 38.091-64.334 62.647zm306.53-71.307c10.339 3.452 21.946 6.354 33.263 9.185 16.139 4.036 30.077 7.521 38.874 12.179 16.216 8.584 47.298 44.301 61.404 61.417l9.513-11.474c-21.33-24.556-51.202-55.694-64.335-62.647-8.994-4.761-24.712-8.728-41.353-12.927-10.578-2.669-20.937-5.283-30.293-8.215-1.166 3.94-3.515 8.089-7.073 12.482zm-134.007-33.478c2.103 2.63 8.581 9.016 28.009 21.01 9.769 6.03 19.314 11.32 24.26 14.003 4.961-2.691 14.546-8.004 24.326-14.043 19.376-11.968 25.843-18.343 27.943-20.97-5.542-5.417-19.144-12.602-52.269-12.602s-46.726 7.185-52.269 12.602zm106.278 1.953h.01zm20.025 176.548c-20.678 0-37.5-16.822-37.5-37.5s16.822-37.5 37.5-37.5 37.5 16.822 37.5 37.5-16.823 37.5-37.5 37.5zm0-60c-12.407 0-22.5 10.094-22.5 22.5s10.093 22.5 22.5 22.5 22.5-10.094 22.5-22.5-10.094-22.5-22.5-22.5z"/></g></g></svg>